<svg height="512pt" viewBox="-6 0 512 512.00113" width="512pt" xmlns="http://www.w3.org/2000/svg"><path d="m500.757812 261.621094c0 138.28125-112.097656 250.378906-250.378906 250.378906s-250.378906-112.097656-250.378906-250.378906 112.097656-250.378906 250.378906-250.378906 250.378906 112.097656 250.378906 250.378906zm0 0" fill="#54d680"/><path d="m193.148438 66.429688v13.519531c0 8.464843-6.863282 15.328125-15.328126 15.328125-8.464843 0-15.328124-6.863282-15.328124-15.328125v-13.519531c0-8.46875 6.863281-15.332032 15.328124-15.332032 8.464844 0 15.328126 6.863282 15.328126 15.332032zm-82.816407 16.546874c-5.441406-6.484374-15.109375-7.332031-21.597656-1.886718-6.484375 5.441406-7.328125 15.109375-1.886719 21.59375l10.253906 12.222656c5.441407 6.488281 15.113282 7.332031 21.597657 1.890625s7.332031-15.109375 1.890625-21.59375zm-35.523437 70.550782-20.019532-3.53125c-8.335937-1.46875-16.289062 4.097656-17.757812 12.433594-1.46875 8.339843 4.097656 16.289062 12.433594 17.757812l20.015625 3.53125c8.339843 1.46875 16.289062-4.097656 17.761719-12.433594 1.46875-8.339844-4.097657-16.289062-12.433594-17.757812zm0 0" fill="#9af4b1"/><path d="m394.101562 59.277344-10.449218 106.183594c-.226563 2.59375-.96875 5.019531-2.109375 7.183593-.175781.792969-.386719 1.582031-.671875 2.363281l-45.179688 112.59375v110.960938h-132.855468v-48.695312c0-25.226563-16.945313-47.3125-41.316407-53.84375-31.527343-8.445313-53.453125-37.019532-53.453125-69.660157v-21.660156c0-7.859375 6.371094-14.234375 14.234375-14.234375 18.34375 0 33.214844 14.871094 33.214844 33.214844v1.996094c0 11.570312 7.769531 21.695312 18.941406 24.6875 16.234375 4.351562 32.175781-7.878907 32.175781-24.6875v-29.515626c0-11.191406-5.71875-21.601562-15.160156-27.605468-9.90625-6.300782-22.753906-5.453125-31.75 2.09375l-2.996094 2.511718c-14.050781 11.792969-35 9.957032-46.792968-4.09375-5.050782-6.023437-4.265625-15 1.757812-20.054687l19.199219-16.109375c23.585937-19.792969 57.230469-22.148438 83.347656-5.84375l21.5 13.425781c.824219.515625 1.773438.785157 2.742188.785157h.003906c2.851563 0 5.167969-2.304688 5.175781-5.15625v-.210938c.015625-6.203125-.789062-12.378906-2.394531-18.371094l-21.660156-76.367187c-4.75-17.71875 5.765625-35.933594 23.484375-40.679688 7.59375-2.035156 15.398437 2.472657 17.433594 10.066407l24.25 86.476562c.3125 1.113281 1.960937.8125 1.859374-.335938l-4.082031-46.988281c-1.597656-18.273437 11.921875-34.382812 30.195313-35.980469 7.828125-.683593 14.734375 5.105469 15.417968 12.9375l9.128907 104.6875c.097656 1.144532 1.765625 1.160157 1.886719.015626l6.003906-57.320313c1.597656-18.273437 17.710937-31.789063 35.984375-30.191406 7.824219.6875 13.621093 7.589843 12.933593 15.421875zm0 0" fill="#ffdfcf"/><path d="m386.585938 45.453125c-12.140626 4.082031-18.15625 12.402344-25.628907 27.703125l-17.199219 74.589844c-.121093 1.144531-6.101562.277344-6.199218-.867188l7.292968-72.523437c.515626-4.8125 1.894532-9.523438 4.296876-13.726563 7.519531-13.15625 21.300781-17.710937 32.011718-16.773437 1.960938.171875 3.789063.730469 5.425782 1.597656zm-179.953126 150.710937v29.519532c0 10.992187-6.820312 20.023437-16.082031 23.742187.90625.359375 1.832031.6875 2.789063.945313 16.234375 4.347656 32.175781-7.882813 32.175781-24.6875v-29.519532c0-11.1875-5.71875-21.601562-15.160156-27.605468-7.277344-4.628906-16.136719-5.386719-23.894531-2.476563 1.726562.648438 3.410156 1.457031 5.011718 2.476563 9.441406 6.003906 15.160156 16.417968 15.160156 27.605468zm106.109376-182.4375c-.507813.042969-3.519532.566407-4.019532.632813-14.878906 1.980469-26.527344 16.390625-26.285156 31.398437l7.703125 94.550782c.3125 1.109375 5.507813.976562 5.410156-.171875l3.722657-90.246094c3.207031-15.9375 9.53125-28.433594 22.625-33.808594-2.605469-1.742187-5.792969-2.648437-9.15625-2.355469zm-127.109376 267.117188c-31.53125-8.449219-56.023437-37.023438-56.023437-69.664062 0 0-3.871094-20.707032-7.308594-20.707032-7.863281 0-14.234375 6.371094-14.234375 14.234375v21.65625c0 32.640625 21.925782 61.214844 53.453125 69.664063 24.371094 6.527344 41.316407 28.613281 41.316407 53.84375v48.691406h24.113281v-63.875c0-25.230469-16.945313-47.316406-41.316407-53.84375zm61.835938-280.726562c-1.445312-.070313-2.929688.070312-4.40625.464843-17.714844 4.75-28.230469 22.960938-23.484375 40.679688l16.300781 99.316406 6.578125 3.691406c.824219.511719 1.773438.785157 2.742188.785157h.003906c2.851563 0 5.167969-2.308594 5.175781-5.160157v-.210937c.015625-6.199219-6.691406-113.605469-6.691406-113.605469-2.453125-9.167969-.816406-18.460937 3.78125-25.960937zm-131.226562 174.738281c3.121093-5.808594 13.363281-17.300781 14.472656-18.230469 0 0 42.273437-37.964844 55.328125-39.710938-19.386719-2.59375-39.488281 2.847657-55.152344 15.992188l-19.203125 16.113281c-6.019531 5.050781-6.808594 14.03125-1.753906 20.054688 1.886718 2.246093 4.019531 4.164062 6.308594 5.78125zm0 0" fill="#ffc9c0"/><path d="m365.546875 362.796875v51.097656c0 7.046875-4.765625 12.96875-11.242187 14.761719v60.816406c-31.65625 14.460938-66.847657 22.527344-103.925782 22.527344-24.976562 0-49.089844-3.65625-71.851562-10.460938v-72.882812c-6.476563-1.792969-11.242188-7.714844-11.242188-14.761719v-51.097656c0-8.464844 6.863282-15.328125 15.332032-15.328125h167.597656c8.46875-.003906 15.332031 6.859375 15.332031 15.328125zm0 0" fill="#ff393a"/><path d="m228.917969 459.882812h125.386719v29.597657c-31.65625 14.464843-66.847657 22.519531-103.925782 22.519531-12.5 0-24.78125-.914062-36.789062-2.683594v-34.105468c0-8.464844 6.863281-15.328126 15.328125-15.328126zm121.296875-112.417968h-132.851563c-8.464843 0-15.332031 6.863281-15.332031 15.332031v51.097656c0 8.464844 6.867188 15.328125 15.332031 15.328125h132.851563c8.46875 0 15.332031-6.863281 15.332031-15.328125v-51.097656c0-8.46875-6.863281-15.332031-15.332031-15.332031zm0 0" fill="#ff6466"/><path d="m394.101562 59.277344-1.417968 14.40625c-2 2.082031-4.910156 3.238281-8 2.859375l-9.417969-1.152344c-5.203125-.636719-8.902344-5.371094-8.265625-10.570313l1.152344-9.421874c.554687-4.511719 2.648437-8.453126 5.691406-11.371094 2.378906-.316406 4.828125-.390625 7.316406-.171875 7.832032.6875 13.628906 7.589843 12.941406 15.421875zm-270.984374 131.214844c-.273438-.007813-.542969-.023438-.816407-.023438-7.863281 0-14.234375 6.375-14.234375 14.234375v19.191406c1.128906.476563 2.367188.738281 3.671875.738281h9.488281c5.242188 0 9.492188-4.25 9.492188-9.488281v-9.492187c-.003906-6.203125-2.996094-11.699219-7.601562-15.160156zm189.625-176.765626c-1.230469.105469-2.4375.285157-3.625.523438-5.582032 3.890625-8.886719 10.660156-8 17.886719l1.15625 9.417969c.640624 5.203124 5.375 8.902343 10.578124 8.261718l9.417969-1.15625c3.296875-.40625 5.988281-2.457031 7.355469-5.230468l-1.464844-16.765626c-.683594-7.832031-7.585937-13.621093-15.417968-12.9375zm-182.582032 129.296876c-2.148437-2.222657-5.121094-3.160157-7.96875-2.816407l-10.503906 8.8125c-6.019531 5.050781-6.808594 14.03125-1.753906 20.050781 2.007812 2.390626 4.285156 4.421876 6.742187 6.097657 4.691407-.042969 9.375-1.792969 13.015625-5.308594l6.824219-6.589844c3.769531-3.644531 3.875-9.648437.234375-13.421875zm112.925782-142.535157c-.230469.0625-.453126.136719-.683594.203125-2.851563 4.4375-3.863282 10.023438-2.296875 15.492188l2.617187 9.121094c1.445313 5.039062 6.699219 7.949218 11.738282 6.503906l9.121093-2.617188c.691407-.195312 1.335938-.472656 1.941407-.800781l-5-17.835937c-2.039063-7.59375-9.84375-12.101563-17.4375-10.066407zm0 0" fill="#ffeee6"/></svg>