<?xml version="1.0" encoding="iso-8859-1"?>
<!-- Generator: Adobe Illustrator 19.0.0, SVG Export Plug-In . SVG Version: 6.00 Build 0)  -->
<svg version="1.1" id="Capa_1" xmlns="http://www.w3.org/2000/svg" xmlns:xlink="http://www.w3.org/1999/xlink" x="0px" y="0px"
	 viewBox="0 0 512.001 512.001" style="enable-background:new 0 0 512.001 512.001;" xml:space="preserve">
<path style="fill:#FCD592;" d="M117.934,306.559C81.853,275.891,43.12,274.157,6.02,287.592C2.391,288.906,0,292.391,0,296.25
	v152.612c0,5.301,4.297,9.599,9.599,9.599h147.613c0,0,54.782-12.841,124.678-47.598
	C231.618,387.158,172.942,353.314,117.934,306.559z"/>
<path style="fill:#EFC689;" d="M87.099,287.305c-26.807-11.193-54.366-9.387-81.079,0.287C2.391,288.906,0,292.391,0,296.25v152.612
	c0,5.301,4.297,9.599,9.599,9.599h62.806c-50.059-54.052-3.613-48.261,44.919-89.43C165.634,328.051,87.813,287.674,87.099,287.305z
	"/>
<path style="fill:#E2B77F;" d="M20.605,448.487V289.915c0-3.048,1.441-5.865,3.785-7.644c-6.155,1.327-12.284,3.117-18.37,5.32
	c-3.629,1.315-6.02,4.8-6.02,8.659v152.612c0,5.301,4.298,9.599,9.599,9.599h20.98C25.07,458.461,20.605,453.996,20.605,448.487z"/>
<circle style="fill:#FFC850;" cx="111.42" cy="158.43" r="39.3"/>
<path style="fill:#F9B428;" d="M92.725,158.434c0-18.14,12.293-33.401,29-37.929c-3.285-0.89-6.736-1.374-10.302-1.374
	c-21.706,0-39.302,17.596-39.302,39.302s17.596,39.302,39.302,39.302c3.566,0,7.018-0.483,10.302-1.374
	C105.017,191.835,92.725,176.574,92.725,158.434z"/>
<g>
	<path style="fill:#FFC850;" d="M111.422,102.124c-4.267,0-7.727-3.459-7.727-7.727V61.266c0-4.267,3.459-7.727,7.727-7.727
		s7.727,3.459,7.727,7.727v33.131C119.149,98.664,115.689,102.124,111.422,102.124z"/>
	<path style="fill:#FFC850;" d="M111.422,263.33c-4.267,0-7.727-3.459-7.727-7.727v-33.131c0-4.267,3.459-7.727,7.727-7.727
		s7.727,3.459,7.727,7.727v33.131C119.149,259.871,115.689,263.33,111.422,263.33z"/>
	<path style="fill:#FFC850;" d="M47.385,166.161H14.253c-4.267,0-7.727-3.459-7.727-7.727c0-4.267,3.459-7.727,7.727-7.727h33.131
		c4.267,0,7.727,3.459,7.727,7.727C55.112,162.702,51.652,166.161,47.385,166.161z"/>
	<path style="fill:#FFC850;" d="M208.591,166.161H175.46c-4.267,0-7.727-3.459-7.727-7.727c0-4.267,3.459-7.727,7.727-7.727h33.131
		c4.267,0,7.727,3.459,7.727,7.727C216.317,162.702,212.858,166.161,208.591,166.161z"/>
	<path style="fill:#FFC850;" d="M60.677,118.617L37.25,95.189c-3.018-3.017-3.018-7.91,0-10.927c3.017-3.017,7.91-3.018,10.927,0
		l23.427,23.428c3.018,3.017,3.018,7.91,0,10.927C68.587,121.634,63.694,121.635,60.677,118.617z"/>
	<path style="fill:#FFC850;" d="M174.667,232.607l-23.428-23.428c-3.018-3.017-3.018-7.91,0-10.927c3.017-3.017,7.91-3.017,10.927,0
		l23.428,23.428c3.018,3.017,3.018,7.91,0,10.927C182.576,235.625,177.684,235.624,174.667,232.607z"/>
	<path style="fill:#FFC850;" d="M37.25,232.607c-3.018-3.017-3.018-7.91,0-10.927l23.427-23.428c3.017-3.017,7.91-3.017,10.927,0
		c3.018,3.017,3.018,7.91,0,10.927l-23.427,23.428C45.159,235.625,40.267,235.624,37.25,232.607z"/>
	<path style="fill:#FFC850;" d="M151.239,118.617c-3.018-3.017-3.018-7.91,0-10.927l23.428-23.428c3.017-3.017,7.91-3.017,10.927,0
		c3.018,3.017,3.018,7.91,0,10.927l-23.428,23.428C159.149,121.635,154.257,121.634,151.239,118.617z"/>
</g>
<path style="fill:#1EBA65;" d="M373.709,252.008h24.724v-39.695c0-6.948,5.632-12.579,12.579-12.579s12.579,5.632,12.579,12.579
	v52.274c0,6.948-5.632,12.579-12.579,12.579h-37.303V252.008z"/>
<path style="fill:#0CA656;" d="M393.413,252.046c0-0.021,0.017-0.037,0.037-0.037h-19.74v25.159h19.74
	c-0.02,0-0.037-0.017-0.037-0.037V252.046z"/>
<path style="fill:#E4EAF8;" d="M387.554,149.192c-3.017-3.018-7.909-3.017-10.927,0l-17.228,17.228v-19.371
	c0-4.267-3.459-7.727-7.727-7.727s-7.727,3.459-7.727,7.727v19.371l-17.228-17.228c-3.017-3.017-7.91-3.017-10.927,0
	c-3.018,3.018-3.018,7.91,0,10.927l18.365,18.365c3.229,3.229,8.582,2.99,11.492-0.633c1.416,1.764,3.587,2.896,6.026,2.896
	c2.438,0,4.609-1.132,6.026-2.896c1.51,1.881,3.726,2.896,6.028,2.896c4.174,0,4.006-0.806,23.829-20.628
	C390.571,157.102,390.571,152.209,387.554,149.192z"/>
<path style="fill:#1EBA65;" d="M376.8,353.503V197.189c0-13.878-11.251-25.129-25.129-25.129l0,0
	c-13.878,0-25.129,11.251-25.129,25.129v189.399C343.095,376.77,359.993,365.775,376.8,353.503z"/>
<path style="fill:#0CA656;" d="M326.542,197.189v189.399c8.308-4.928,16.703-10.153,25.129-15.686V172.06l0,0
	C337.793,172.06,326.542,183.311,326.542,197.189z"/>
<path style="fill:#0D994C;" d="M339.107,188.636c0-5.645,1.69-10.893,4.586-15.275c-9.965,3.336-17.15,12.74-17.15,23.828v189.399
	c4.169-2.473,8.359-5.021,12.565-7.644V188.636H339.107z"/>
<path style="fill:#EFC689;" d="M512,314.946c0-3.415-2.115-6.498-5.326-7.661c-32.824-11.886-67.093-10.352-99.015,16.781
	c-119.711,101.75-259.064,134.395-259.064,134.395h354.913c4.69,0,8.493-3.802,8.493-8.493L512,314.946L512,314.946z"/>
<path style="fill:#E2B77F;" d="M429.032,325.766c16.55-15.069,33.731-22.753,51.014-24.899c-24.395-2.795-49.02,3.338-72.388,23.2
	c-119.711,101.75-259.064,134.395-259.064,134.395h56.898C254.584,440.896,346.475,400.937,429.032,325.766z"/>
<g>
</g>
<g>
</g>
<g>
</g>
<g>
</g>
<g>
</g>
<g>
</g>
<g>
</g>
<g>
</g>
<g>
</g>
<g>
</g>
<g>
</g>
<g>
</g>
<g>
</g>
<g>
</g>
<g>
</g>
</svg>
