<svg id="Layer_1" enable-background="new 0 0 512 512" height="512" viewBox="0 0 512 512" width="512" xmlns="http://www.w3.org/2000/svg"><g><g><path d="m105.072 210.298c0 29.082-15.221 40.549-33.996 40.549s-33.996-11.467-33.996-40.549 15.221-55.255 33.996-55.255 33.996 26.172 33.996 55.255z" fill="#64cc56"/><path d="m71.076 155.042c-5.566 0-10.815 2.315-15.453 6.309 11.005 9.48 18.543 28.486 18.543 48.946s-7.539 32.192-18.543 37.355c4.637 2.176 9.886 3.193 15.453 3.193 18.776 0 33.996-11.466 33.996-40.549 0-29.081-15.221-55.254-33.996-55.254z" fill="#5bbd4f"/><path d="m474.92 210.298c0 29.082-15.221 40.549-33.996 40.549s-33.996-11.466-33.996-40.549 15.221-55.255 33.996-55.255 33.996 26.172 33.996 55.255z" fill="#64cc56"/><path d="m440.924 155.042c-5.566 0-10.815 2.315-15.453 6.309 11.005 9.48 18.543 28.486 18.543 48.946s-7.539 32.192-18.543 37.355c4.637 2.176 9.886 3.193 15.453 3.193 18.776 0 33.996-11.466 33.996-40.549 0-29.081-15.22-55.254-33.996-55.254z" fill="#5bbd4f"/></g><path d="m386.833 253.107s-9.83-51.563-18.972-64.442c-9.142-12.88-18.972-16.437-26.684-28.328s-22.828-51.598-27.296-74.868-23.012-34.462-29.989-38.825-18.467-3.225-25.827 0c-7.359 3.225-16.64 23.523-16.64 23.523s-19.088 44.056-20.092 55.434c-1.004 11.377-2.16 33.185-7.483 42.741s-12.947 26.741-27.269 32.865c-14.321 6.124-37.905 10.636-43.356 16.842-5.452 6.206-18.059 35.059-18.059 35.059h261.667z" fill="#90a4ae"/><path d="m367.861 188.665c-9.142-12.879-18.972-16.437-26.684-28.328-7.711-11.892-22.828-51.598-27.296-74.868s-23.012-34.462-29.989-38.825-18.467-3.225-25.827 0c-.808.354-1.639.923-2.479 1.639 8.176 5.252 23.397 16.396 27.389 37.186 4.468 23.27 19.585 62.976 27.296 74.868 7.711 11.891 17.541 15.449 26.684 28.328 9.142 12.88 18.972 64.442 18.972 64.442h30.905c.001 0-9.829-51.563-18.971-64.442z" fill="#78909c"/><path d="m481.095 512h-450.19c-17.068 0-30.905-13.837-30.905-30.905v-202.431c0-17.069 13.837-30.905 30.905-30.905h450.189c17.069 0 30.905 13.837 30.905 30.905v202.431c.001 17.068-13.836 30.905-30.904 30.905z" fill="#64cc56"/><path d="m481.095 247.759h-30.905c17.069 0 30.905 13.837 30.905 30.905v202.431c0 17.068-13.837 30.905-30.905 30.905h30.905c17.068 0 30.905-13.837 30.905-30.905v-202.431c0-17.068-13.837-30.905-30.905-30.905z" fill="#5bbd4f"/><circle cx="148.974" cy="111.549" fill="#ffd54f" r="52.024"/><path d="m148.974 59.524c-4.862 0-9.563.681-14.027 1.929 21.915 6.124 37.997 26.225 37.997 50.095s-16.082 43.971-37.997 50.095c4.464 1.247 9.165 1.929 14.027 1.929 28.732 0 52.024-23.292 52.024-52.024s-23.292-52.024-52.024-52.024z" fill="#ffca28"/><g fill="#ffca28"><path d="m148.972 0c-4.142 0-7.5 3.357-7.5 7.5v13.476c0 4.143 3.358 7.5 7.5 7.5s7.5-3.357 7.5-7.5v-13.476c0-4.143-3.358-7.5-7.5-7.5z"/><path d="m227.848 32.674c-2.93-2.929-7.678-2.93-10.607-.001l-9.532 9.531c-2.929 2.929-2.929 7.678 0 10.606 1.465 1.465 3.384 2.197 5.304 2.197 1.919 0 3.839-.732 5.303-2.196l9.532-9.531c2.928-2.928 2.928-7.677 0-10.606z"/><path d="m58.399 104.048h-13.476c-4.142 0-7.5 3.357-7.5 7.5s3.358 7.5 7.5 7.5h13.476c4.142 0 7.5-3.357 7.5-7.5s-3.358-7.5-7.5-7.5z"/><path d="m80.703 32.673c-2.93-2.928-7.678-2.929-10.607.001-2.929 2.929-2.928 7.678 0 10.606l9.532 9.531c1.465 1.464 3.384 2.196 5.303 2.196s3.839-.732 5.304-2.197c2.929-2.929 2.928-7.678 0-10.606z"/></g><path d="m323.782 387.818c.013 4.323 5.942 11.852 17.987 15.833 13.862 4.581 37.492 7.422 67.408 18.64 19.78 7.418 46.214 26.672 50.716 51.076 2.38 12.877 0 27.351-6.356 38.632h-167.342c9.848-1.937 19.532-4.914 28.588-9.499 12.177-6.15 25.651-15.833 31.771-29.216 7.592-16.586-57.529-42.48-69.558-48.47-28.004-13.945-5.39-34.585 9.107-39.868 5.754-2.097 2.091-12.032-3.874-12.032h-204.286c-11.569 0-22.046-5.028-29.618-13.176-7.582-8.139-12.269-19.388-12.269-31.812 0-24.848 18.749-44.988 41.887-44.988h356.113c11.569 0 22.046 5.038 29.618 13.176 7.531 8.076 12.208 19.233 12.269 31.544.134 24.899-19.46 45.256-42.629 45.256h-84.124c-9.725.001-25.436 5.519-25.408 14.904z" fill="#bdf9ff"/><g fill="#8cf2ff"><path d="m463.674 296.115c-7.572-8.138-18.049-13.176-29.618-13.176h-30.905c11.569 0 22.046 5.038 29.618 13.176 7.531 8.076 12.207 19.233 12.269 31.544.134 24.899-19.46 45.256-42.629 45.256h30.905c23.169 0 42.763-20.357 42.629-45.256-.061-12.31-4.738-23.467-12.269-31.544z"/><path d="m409.178 422.292c-29.916-11.219-53.546-14.059-67.408-18.64 19.78 7.418 79.263 24.136 87.219 69.717 2.252 12.9 0 27.351-6.356 38.632h30.905c6.356-11.281 8.736-25.755 6.356-38.632-4.502-24.406-30.937-43.66-50.716-51.077z"/></g></g></svg>