<?xml version="1.0" encoding="iso-8859-1"?>
<!-- Generator: Adobe Illustrator 19.0.0, SVG Export Plug-In . SVG Version: 6.00 Build 0)  -->
<svg version="1.1" id="Layer_1" xmlns="http://www.w3.org/2000/svg" xmlns:xlink="http://www.w3.org/1999/xlink" x="0px" y="0px"
	 viewBox="0 0 344.179 344.179" style="enable-background:new 0 0 344.179 344.179;" xml:space="preserve">
<g>
	<g>
		<path style="fill:#A4A9AD;" d="M308.423,221.373c-5.523,0-10-4.478-10-10V57.098c0-12.131-9.869-22-21.999-22
			c-12.131,0-22,9.869-22,22v14.25c0,5.522-4.477,10-10,10s-10-4.478-10-10v-14.25c0-23.159,18.841-42,42-42
			s41.999,18.841,41.999,42v154.275C318.423,216.895,313.946,221.373,308.423,221.373z"/>
		<path style="fill:#5C6670;" d="M261.449,80.584c-0.128-1.093-1.134-1.986-2.234-1.986h-29.583c-1.1,0-2.106,0.894-2.234,1.986
			l-2.045,17.361c-0.128,1.093,0.666,1.986,1.766,1.986h34.608c1.1,0,1.895-0.894,1.766-1.986L261.449,80.584z"/>
		<rect x="226.007" y="72.598" style="fill:#99DAEA;" width="36.833" height="9.939"/>
		<g>
			<rect x="242.707" y="72.598" style="fill:#333E48;" width="3.432" height="9.939"/>
			<rect x="232.874" y="72.598" style="fill:#333E48;" width="3.432" height="9.939"/>
			<rect x="252.541" y="72.598" style="fill:#333E48;" width="3.432" height="9.939"/>
		</g>
	</g>
	<g>
		<path style="fill:#A4A9AD;" d="M73.33,329.081c-0.976,0-1.968-0.188-2.925-0.582c-3.919-1.617-5.785-6.105-4.167-10.025
			l9.504-23.029c1.617-3.918,6.104-5.786,10.024-4.167c3.919,1.617,5.785,6.105,4.168,10.025l-9.504,23.028
			C79.207,327.292,76.346,329.081,73.33,329.081z"/>
		<path style="fill:#A4A9AD;" d="M270.85,329.081c-3.016,0-5.876-1.788-7.099-4.75l-9.504-23.028
			c-1.617-3.92,0.249-8.408,4.167-10.025c3.918-1.619,8.406,0.249,10.024,4.167l9.504,23.029c1.617,3.92-0.248,8.408-4.167,10.025
			C272.817,328.893,271.825,329.081,270.85,329.081z"/>
		<path style="fill:#E4E4E4;" d="M332.107,220.512c0,49.361-40.015,89.375-89.376,89.375H101.448
			c-49.36,0-89.375-40.014-89.375-89.375H332.107z"/>
		<path style="fill:#99DAEA;" d="M329.913,197.106c7.879,0,14.266,6.39,14.266,14.267c0,7.878-6.387,14.268-14.266,14.268H14.266
			C6.387,225.641,0,219.251,0,211.373c0-7.877,6.387-14.267,14.266-14.267H329.913z"/>
	</g>
</g>
<g>
</g>
<g>
</g>
<g>
</g>
<g>
</g>
<g>
</g>
<g>
</g>
<g>
</g>
<g>
</g>
<g>
</g>
<g>
</g>
<g>
</g>
<g>
</g>
<g>
</g>
<g>
</g>
<g>
</g>
</svg>
