<?xml version="1.0" encoding="iso-8859-1"?>
<!-- Generator: Adobe Illustrator 19.0.0, SVG Export Plug-In . SVG Version: 6.00 Build 0)  -->
<svg version="1.1" id="Capa_1" xmlns="http://www.w3.org/2000/svg" xmlns:xlink="http://www.w3.org/1999/xlink" x="0px" y="0px"
	 viewBox="0 0 512 512" style="enable-background:new 0 0 512 512;" xml:space="preserve">
<path style="fill:#C49D7A;" d="M368.523,460c0,4.143-3.328,7.5-7.435,7.5H150.915c-4.106,0-7.435-3.357-7.435-7.5
	s3.329-7.5,7.435-7.5h210.172C365.193,452.5,368.523,455.857,368.523,460z"/>
<path style="fill:#EBC9A0;" d="M170.742,410v97c0,2.761-2.219,5-4.957,5h-19.828c-2.738,0-4.957-2.239-4.957-5v-97
	c0-2.761,2.219-5,4.957-5h19.828C168.523,405,170.742,407.239,170.742,410z M366.044,405h-19.828c-2.738,0-4.957,2.239-4.957,5v97
	c0,2.761,2.219,5,4.957,5h19.828c2.738,0,4.957-2.239,4.957-5v-97C371,407.239,368.781,405,366.044,405z"/>
<path style="fill:#D7AF87;" d="M361,420h-210c-5.523,0-10-4.477-10-10V10c0-5.523,4.477-10,10-10h210c5.523,0,10,4.477,10,10v400
	C371,415.523,366.523,420,361,420z"/>
<path style="fill:#BAF6FF;" d="M324.362,390H175.742c-2.761,0-5-2.239-5-5V33.673c0-2.761,2.239-5,5-5h148.621c2.761,0,5,2.239,5,5
	V385C329.362,387.761,327.125,390,324.362,390z"/>
<g>
	<path style="fill:#A2DAF9;" d="M341.26,33.672V385c0,2.761-2.219,5-4.957,5H319.45V28.672h16.853
		C339.039,28.672,341.26,30.911,341.26,33.672z"/>
	<path style="fill:#A2DAF9;" d="M341.26,155.894v24.113L256.315,72.166c-2.554-3.243-2.019-7.962,1.196-10.538
		c3.216-2.575,7.893-2.036,10.447,1.206L341.26,155.894z M215.669,213.182c1.621,0,3.253-0.532,4.62-1.628
		c3.215-2.576,3.751-7.295,1.196-10.538l-50.744-64.422v24.113l39.101,49.641C211.311,212.211,213.48,213.182,215.669,213.182z
		 M170.742,236.887V261l75.967,96.445c1.468,1.863,3.636,2.834,5.826,2.834c1.621,0,3.253-0.532,4.621-1.628
		c3.215-2.576,3.751-7.295,1.196-10.538L170.742,236.887z M294.378,208.725c-3.214,2.576-3.751,7.295-1.196,10.538l48.077,61.038
		v-24.113l-36.434-46.256C302.271,206.689,297.594,206.149,294.378,208.725z"/>
</g>
<g>
</g>
<g>
</g>
<g>
</g>
<g>
</g>
<g>
</g>
<g>
</g>
<g>
</g>
<g>
</g>
<g>
</g>
<g>
</g>
<g>
</g>
<g>
</g>
<g>
</g>
<g>
</g>
<g>
</g>
</svg>
