<svg height="511pt" viewBox="0 -6 511.99991 511" width="511pt" xmlns="http://www.w3.org/2000/svg"><path d="m18.714844 19.214844h453.679687v343.101562h-453.679687zm0 0" fill="#bdf9ff"/><path d="m385.996094 19.214844v241.003906c0 18.269531-14.808594 33.082031-33.078125 33.082031h-334.203125v69.015625h453.679687v-343.101562zm0 0" fill="#90e7fc"/><path d="m229.671875.5c-10.335937 0-18.714844 8.378906-18.714844 18.714844v106.320312h-192.242187c-10.335938 0-18.714844 8.378906-18.714844 18.71875 0 10.335938 8.378906 18.714844 18.714844 18.714844h192.242187v217.035156c0 10.335938 8.378907 18.714844 18.714844 18.714844s18.714844-8.378906 18.714844-18.714844v-360.789062c0-10.335938-8.378907-18.714844-18.714844-18.714844zm0 0" fill="#bcbcc4"/><path d="m472.394531 381.03125h-453.679687c-10.335938 0-18.714844-8.378906-18.714844-18.714844v-343.101562c0-10.335938 8.378906-18.714844 18.714844-18.714844h453.679687c10.335938 0 18.714844 8.378906 18.714844 18.714844v343.101562c0 10.335938-8.378906 18.714844-18.714844 18.714844zm-434.964843-37.429688h416.25v-305.671874h-416.25zm0 0" fill="#bcbcc4"/><path d="m472.394531.5h-.882812c.074219.683594.121093 1.375.121093 2.078125v343.101563c0 10.335937-8.378906 18.714843-18.714843 18.714843h-452.796875c1.035156 9.359375 8.960937 16.636719 18.59375 16.636719h453.679687c10.335938 0 18.714844-8.378906 18.714844-18.714844v-343.101562c0-10.335938-8.378906-18.714844-18.714844-18.714844zm0 0" fill="#a6a6a6"/><path d="m235.320312 37.929688c-2.542968 0-4.609374 2.0625-4.609374 4.609374v337.464844c0 7.140625-3.996094 13.339844-9.875 16.496094 2.84375 1.527344 6.128906 2.34375 9.617187 2.203125 10.113281-.414063 17.933594-9.089844 17.933594-19.214844v-341.558593zm0 0" fill="#a6a6a6"/><path d="m314.828125 327.308594c-2.589844-30.765625-28.371094-54.933594-59.808594-54.933594h-113.527343c-31.40625 0-56.871094 25.460938-56.871094 56.867188v43.960937c0 18.058594 14.640625 32.699219 32.699218 32.699219h137.699219c6.191407 0 12.160157-.9375 17.777344-2.679688-.007813 1.558594-.015625 3.125-.015625 4.703125 0 64.085938 7.863281 90.988281 23.980469 90.988281 16.113281 0 23.976562-26.902343 23.976562-90.988281-.003906-31.933593-1.957031-60.246093-5.910156-80.617187zm0 0" fill="#6e6e6e"/><path d="m314.828125 327.308594c-2.589844-30.765625-28.367187-54.933594-59.808594-54.933594h-19.597656c31.441406 0 57.21875 24.167969 59.8125 54.933594 3.953125 20.371094 5.90625 48.683594 5.90625 80.617187 0 49.363281-4.671875 76.644531-14.179687 86.585938 2.835937 2.960937 6.097656 4.402343 9.796874 4.402343 16.113282 0 23.976563-26.902343 23.976563-90.988281 0-31.933593-1.953125-60.246093-5.90625-80.617187zm0 0" fill="#5c5c5c"/><path d="m178.933594 238.285156-31.722656 16.027344c-5.453126-1.777344-11.269532-2.746094-17.3125-2.746094-6.046876 0-11.863282.96875-17.316407 2.746094l-31.722656-16.027344c-5.160156-2.605468-11.15625 1.558594-10.511719 7.308594l5.378906 48.050781c-1.125 4.417969-1.726562 9.046875-1.726562 13.816407 0 30.871093 25.027344 55.894531 55.894531 55.894531 30.871094 0 55.898438-25.023438 55.898438-55.894531 0-4.769532-.601563-9.398438-1.726563-13.816407l5.378906-48.050781c.644532-5.75-5.347656-9.914062-10.511718-7.308594zm0 0" fill="#6e6e6e"/><path d="m178.933594 238.285156-6.828125 3.449219-4.242188 37.894531c-.203125 1.804688-.121093 3.632813.246094 5.417969 1.066406 5.167969 1.417969 10.597656.945313 16.179687-2.324219 27.316407-24.59375 49.125-51.949219 50.917969-9.3125.609375-18.164063-1.078125-26.074219-4.53125 10.515625 10.179688 25 16.277344 40.917969 15.707031 29.4375-1.054687 53.230469-25.25 53.832031-54.695312.105469-5.179688-.5-10.203125-1.714844-14.980469l5.378906-48.050781c.644532-5.75-5.347656-9.914062-10.511718-7.308594zm0 0" fill="#5c5c5c"/><path d="m105.078125 319.097656c-6.308594 0-12.191406-3.394531-15.355469-8.859375-2.105468-3.632812-.867187-8.285156 2.765625-10.386719 3.636719-2.105468 8.285157-.867187 10.390625 2.765626.460938.796874 1.285156 1.273437 2.199219 1.273437.871094 0 1.667969-.4375 2.140625-1.171875 2.265625-3.535156 6.96875-4.566406 10.503906-2.300781s4.5625 6.96875 2.296875 10.503906c-3.28125 5.117187-8.867187 8.175781-14.941406 8.175781zm0 0" fill="#545353"/><path d="m152.0625 319.097656c-6.308594 0-12.195312-3.394531-15.359375-8.859375-2.101563-3.632812-.863281-8.285156 2.769531-10.386719 3.632813-2.105468 8.285156-.867187 10.390625 2.765626.460938.796874 1.28125 1.273437 2.199219 1.273437.871094 0 1.667969-.4375 2.140625-1.171875 2.265625-3.535156 6.96875-4.566406 10.503906-2.300781 3.535157 2.265625 4.5625 6.96875 2.296875 10.503906-3.28125 5.117187-8.867187 8.175781-14.941406 8.175781zm0 0" fill="#545353"/><path d="m508.90625 230.445312c-9.582031-16.742187-38.929688-15.683593-68.96875 1.121094-1.195312.667969-2.679688-.128906-2.789062-1.496094-.804688-10.074218-2.726563-20.839843-5.851563-31.773437-12.101563-42.351563-37.589844-71.191406-56.933594-64.410156-17.15625 6.007812-23.710937 38.011719-16.539062 74.710937.273437 1.394532-1.046875 2.5625-2.410157 2.15625-15.675781-4.695312-29.058593-2.941406-35.972656 6.316406-12.929687 17.320313 1.648438 54.308594 32.5625 82.613282 16.734375 15.328125 34.824219 24.949218 49.949219 27.816406 16.523437 3.957031 41.488281-2.917969 65.285156-19.625 33.875-23.78125 52.53125-58.449219 41.667969-77.429688zm0 0" fill="#34b836"/><path d="m420.546875 207.171875c3.125 10.9375 5.046875 21.699219 5.851563 31.773437.109374 1.367188 1.792968 2.433594 2.789062 1.496094 3.839844-3.625 7.757812-6.734375 11.679688-9.382812-.308594.167968-.617188.332031-.929688.503906-1.195312.667969-2.679688-.128906-2.789062-1.492188-.804688-10.074218-2.726563-20.839843-5.851563-31.773437-12.101563-42.355469-37.589844-71.191406-56.933594-64.414063-4.226562 1.480469-7.804687 4.542969-10.695312 8.859376 19.339843-6.703126 44.792969 22.117187 56.878906 64.429687zm0 0" fill="#1b9b1b"/><path d="m508.90625 230.445312c-4.210938-7.355468-12.238281-11.273437-22.460938-11.929687 1.035157 1.128906 1.960938 2.367187 2.746094 3.730469 10.863282 18.980468-7.792968 53.648437-41.667968 77.429687-23.796876 16.707031-48.761719 23.585938-65.285157 19.628907-1.570312-.300782-3.183593-.6875-4.8125-1.128907 8.558594 4.726563 16.917969 7.882813 24.527344 9.324219 16.523437 3.957031 41.488281-2.917969 65.285156-19.625 33.875-23.78125 52.53125-58.449219 41.667969-77.429688zm0 0" fill="#1b9b1b"/><path d="m362.738281 318.261719c-5.539062 9.277343-8.5625 20.234375-8.121093 31.925781 1.136718 29.898438 25.324218 54.289062 55.214843 55.652344 33.253907 1.515625 60.691407-24.992188 60.691407-57.910156 0-10.851563-2.984376-21-8.171876-29.683594-1.097656-1.835938-3.109374-2.933594-5.25-2.933594h-89.105468c-2.144532 0-4.15625 1.105469-5.257813 2.949219zm0 0" fill="#ffa300"/><path d="m462.351562 318.246094c-1.097656-1.835938-3.109374-2.933594-5.25-2.933594h-19.003906c1.863282 5.683594 2.878906 11.753906 2.878906 18.0625 0 32.917969-27.4375 59.429688-60.691406 57.910156-2.363281-.109375-4.683594-.375-6.964844-.761718 9.71875 8.964843 22.488282 14.675781 36.511719 15.316406 33.253907 1.515625 60.6875-24.992188 60.6875-57.910156.003907-10.851563-2.980469-21-8.167969-29.683594zm0 0" fill="#ff8b00"/><path d="m136.914062 326.875c0 4.5-5.507812 9.328125-8.152343 9.328125s-8.148438-4.828125-8.148438-9.328125c0-4.503906 3.648438-3.75 8.148438-3.75s8.152343-.75 8.152343 3.75zm0 0" fill="#ffa6a0"/></svg>