<svg height="512" viewBox="0 0 58 58" width="512" xmlns="http://www.w3.org/2000/svg"><g id="Page-1" fill="none" fill-rule="evenodd"><g id="030---Bus" fill-rule="nonzero"><path id="Shape" d="m3 16c-.55228475 0-1-.4477153-1-1v-3c0-2.209139 1.790861-4 4-4h5c.5522847 0 1 .44771525 1 1s-.4477153 1-1 1h-5c-1.1045695 0-2 .8954305-2 2v3c0 .5522847-.44771525 1-1 1z" fill="#56595e"/><path id="Shape" d="m55 16c-.5522847 0-1-.4477153-1-1v-3c0-1.1045695-.8954305-2-2-2h-5c-.5522847 0-1-.44771525-1-1s.4477153-1 1-1h5c2.209139 0 4 1.790861 4 4v3c0 .5522847-.4477153 1-1 1z" fill="#56595e"/><rect id="Rectangle-path" fill="#95a5a5" height="10" rx="2" width="6" y="15"/><rect id="Rectangle-path" fill="#95a5a5" height="10" rx="2" transform="matrix(-1 0 0 -1 110 40)" width="6" x="52" y="15"/><path id="Shape" d="m23 12-12-2c-.5522847 0-1-.44771525-1-1v-3c0-2.49 7.95-6 19-6s19 3.51 19 6v3c0 .55228475-.4477153 1-1 1l-12 2z" fill="#f0c419"/><path id="Shape" d="m8.99999986 49 .00000014-20.18c-.0001144-1.2097139.07000357-2.4184141.21-3.62l.02-.2 19.77-3 19.77 3 .02.2c.1399964 1.2015859.2101144 2.4102861.21 3.62l.0000001 20.18z" fill="#f3d55b"/><path id="Shape" d="m47.23 11.98-.21-1.78-.02-.2h-18v15h19.77z" fill="#2fa8cc"/><path id="Shape" d="m11 10-1.23 10.4-.52 4.42-.02.18h19.77v-14.97-.03z" fill="#2fa8cc"/><path id="Shape" d="m18 49v7c-.0032948 1.1032019-.8967981 1.9967052-2 2h-4c-1.1032019-.0032948-1.9967052-.8967981-2-2v-7z" fill="#393f4a"/><path id="Shape" d="m48 49v7c-.0032948 1.1032019-.8967981 1.9967052-2 2h-4c-1.1032019-.0032948-1.9967052-.8967981-2-2v-7z" fill="#393f4a"/><path id="Shape" d="m36 44h14c.5522847 0 1 .4477153 1 1v5c0 .5522847-.4477153 1-1 1h-42c-.55228475 0-1-.4477153-1-1v-5c0-.5522847.44771525-1 1-1z" fill="#95a5a5"/><path id="Shape" d="m29 10v.03c-3.62.2-16.01 1.52-19.23 10.37l1.23-10.4z" fill="#67b9cc"/><path id="Shape" d="m47.02 10.2c-5.79.64-18.02 3.35-18.02 14.8v-15h18z" fill="#67b9cc"/><circle id="Oval" cx="15.5" cy="31.5" fill="#f29c1f" r="2.5"/><circle id="Oval" cx="42.5" cy="31.5" fill="#f29c1f" r="2.5"/><path id="Shape" d="m35 32h-12c-.5522847 0-1-.4477153-1-1s.4477153-1 1-1h12c.5522847 0 1 .4477153 1 1s-.4477153 1-1 1z" fill="#7f8c8d"/><path id="Shape" d="m35 36h-12c-.5522847 0-1-.4477153-1-1s.4477153-1 1-1h12c.5522847 0 1 .4477153 1 1s-.4477153 1-1 1z" fill="#7f8c8d"/><path id="Shape" d="m35 6v4h-12v-4c.0032948-1.10320187.8967981-1.9967052 2-2h8c1.1032019.0032948 1.9967052.89679813 2 2z" fill="#f29c1f"/><g fill="#fff"><path id="Shape" d="m14 18c-.4043959-.0000863-.7689341-.2437275-.923678-.6173454-.1547439-.373618-.0692299-.8036603.216678-1.0896546l3-3c.3923789-.3789722 1.0160848-.3735524 1.4018186.0121814s.3911536 1.0094397.0121814 1.4018186l-3 3c-.1874927.1875494-.4418052.2929434-.707.293z"/><path id="Shape" d="m14 23c-.4043959-.0000863-.7689341-.2437275-.923678-.6173454-.1547439-.373618-.0692299-.8036603.216678-1.0896546l8-8c.3923789-.3789722 1.0160848-.3735524 1.4018186.0121814s.3911536 1.0094397.0121814 1.4018186l-8 8c-.1874927.1875494-.4418052.2929434-.707.293z"/><path id="Shape" d="m33 18c-.4043959-.0000863-.7689341-.2437275-.923678-.6173454-.1547439-.373618-.0692299-.8036603.216678-1.0896546l3-3c.3923789-.3789722 1.0160848-.3735524 1.4018186.0121814s.3911536 1.0094397.0121814 1.4018186l-3 3c-.1874927.1875494-.4418052.2929434-.707.293z"/><path id="Shape" d="m33 23c-.4043959-.0000863-.7689341-.2437275-.923678-.6173454-.1547439-.373618-.0692299-.8036603.216678-1.0896546l8-8c.3923789-.3789722 1.0160848-.3735524 1.4018186.0121814s.3911536 1.0094397.0121814 1.4018186l-8 8c-.1874927.1875494-.4418052.2929434-.707.293z"/></g><rect id="Rectangle-path" fill="#ecf0f1" height="6" rx="1" width="14" x="22" y="41"/><path id="Rectangle-path" d="m28 10h2v15h-2z" fill="#56595e"/></g></g></svg>