<?xml version="1.0" encoding="iso-8859-1"?>
<!-- Generator: Adobe Illustrator 19.0.0, SVG Export Plug-In . SVG Version: 6.00 Build 0)  -->
<svg version="1.1" id="Layer_1" xmlns="http://www.w3.org/2000/svg" xmlns:xlink="http://www.w3.org/1999/xlink" x="0px" y="0px"
	 viewBox="0 0 512 512" style="enable-background:new 0 0 512 512;" xml:space="preserve">
<path style="fill:#218649;" d="M381.935,282.909v-10.028c7.384-13.319,11.603-28.638,11.603-44.946c0-51.28-41.57-92.85-92.85-92.85
	c-8.922,0-17.539,1.285-25.705,3.633c-16.907-17.708-40.728-28.757-67.144-28.757c-51.279,0-92.85,41.569-92.85,92.85
	c0,18.706,5.551,36.108,15.069,50.683v29.415c-51.279,0-92.85,41.569-92.85,92.85c0,51.278,41.57,92.85,92.85,92.85h251.877
	c51.279,0,92.85-41.572,92.85-92.85C474.785,324.479,433.214,282.909,381.935,282.909z"/>
<path style="opacity:0.2;enable-background:new    ;" d="M381.935,282.909v-10.028c7.384-13.319,11.603-28.638,11.603-44.946
	c0-17.337-4.764-33.554-13.035-47.439c-47.469,5.298-84.096,39.444-84.096,80.785c0,39.826,33.994,72.977,78.927,80.086v127.241
	h6.601c10.319,0,20.235-1.708,29.509-4.817v-70.768l43.87-33.257c4.427,2.276,9.543,3.582,14.998,3.582
	c1.218,0,2.417-0.072,3.597-0.199C467.754,317.839,428.936,282.909,381.935,282.909z M411.444,372.463v-31.096
	c10.193-1.613,19.822-4.564,28.618-8.63c-0.12,0.998-0.188,2.01-0.188,3.038c0,4.535,1.217,8.813,3.359,12.587L411.444,372.463z"/>
<path style="opacity:0.2;enable-background:new    ;" d="M146.671,179.781c-10.36,0-20.338,1.37-29.699,3.897
	c-1.293,6.176-1.983,12.573-1.983,19.134c0,18.706,5.551,36.108,15.069,50.683v29.415c-24.376,0-46.546,9.406-63.112,24.77
	c0.166,0.201,0.323,0.41,0.493,0.608c-0.418,0.03-0.835,0.069-1.249,0.113c-11.034,10.465-19.494,23.602-24.347,38.388
	c4.693,9.746,15.418,16.56,27.905,16.56c5.455,0,10.571-1.305,14.998-3.582l43.87,33.257v75.549
	c0.482,0.007,0.958,0.036,1.442,0.036h34.668V341.368c44.933-7.109,78.927-40.259,78.927-80.086
	C243.653,216.27,200.233,179.781,146.671,179.781z M128.616,372.463l-31.79-24.1c2.142-3.774,3.359-8.052,3.359-12.587
	c0-1.028-0.068-2.039-0.188-3.038c8.797,4.067,18.426,7.017,28.618,8.63V372.463z"/>
<polygon style="fill:#D68231;" points="112.003,295.661 112.003,372.462 64.241,336.255 54.342,349.312 112.003,393.024 
	112.003,468.609 148.111,468.609 148.111,295.661 "/>
<ellipse style="fill:#7CDFA8;" cx="53.135" cy="335.777" rx="30.437" ry="27.571"/>
<path style="opacity:0.2;enable-background:new    ;" d="M148.111,295.661v61.073c-5.917,0.819-11.95,1.244-18.054,1.244
	c-6.105,0-12.137-0.425-18.055-1.244v-61.073H148.111z"/>
<ellipse style="fill:#00AD68;" cx="130.055" cy="261.279" rx="96.979" ry="81.5"/>
<polygon style="fill:#D68231;" points="457.65,349.312 447.751,336.255 399.99,372.462 399.99,295.661 363.881,295.661 
	363.881,468.609 399.99,468.609 399.99,393.024 "/>
<ellipse style="fill:#7CDFA8;" cx="458.852" cy="335.777" rx="30.437" ry="27.571"/>
<path style="opacity:0.2;enable-background:new    ;" d="M363.881,295.661v61.073c5.917,0.819,11.95,1.244,18.054,1.244
	c6.105,0,12.137-0.425,18.055-1.244v-61.073H363.881z"/>
<g>
	<ellipse style="fill:#00AD68;" cx="381.94" cy="261.279" rx="96.979" ry="81.5"/>
	<path style="fill:#00AD68;" d="M512,476.505c0,2.426-1.984,4.412-4.412,4.412H4.412c-2.427,0-4.412-1.986-4.412-4.412v-15.792
		c0-2.428,1.985-4.414,4.412-4.414h503.176c2.428,0,4.412,1.986,4.412,4.414V476.505z"/>
</g>
<rect x="23.329" y="393.125" style="fill:#A4A9AD;" width="143.458" height="63.168"/>
<rect x="23.329" y="393.125" style="opacity:0.1;enable-background:new    ;" width="143.458" height="25.511"/>
<path style="fill:#D1D3D3;" d="M166.784,378.564H23.329c-6.008,0-10.923,4.916-10.923,10.923v7.284
	c0,6.008,4.916,10.923,10.923,10.923h143.455L166.784,378.564L166.784,378.564z"/>
<rect x="124.866" y="378.564" style="opacity:0.2;enable-background:new    ;" width="41.913" height="77.732"/>
<circle style="opacity:0.1;enable-background:new    ;" cx="35.891" cy="422.466" r="3.823"/>
<circle style="opacity:0.1;enable-background:new    ;" cx="76.486" cy="426.289" r="3.823"/>
<circle style="opacity:0.1;enable-background:new    ;" cx="98.879" cy="438.163" r="3.823"/>
<circle style="opacity:0.1;enable-background:new    ;" cx="114.991" cy="418.642" r="3.823"/>
<rect x="345.204" y="393.125" style="fill:#A4A9AD;" width="143.458" height="63.168"/>
<rect x="345.204" y="393.125" style="opacity:0.1;enable-background:new    ;" width="143.458" height="25.511"/>
<path style="fill:#D1D3D3;" d="M345.208,378.564h143.455c6.008,0,10.923,4.916,10.923,10.923v7.284
	c0,6.008-4.916,10.923-10.923,10.923H345.208V378.564z"/>
<rect x="345.204" y="378.564" style="opacity:0.2;enable-background:new    ;" width="41.913" height="77.732"/>
<circle style="opacity:0.1;enable-background:new    ;" cx="476.1" cy="422.466" r="3.823"/>
<circle style="opacity:0.1;enable-background:new    ;" cx="435.497" cy="426.289" r="3.823"/>
<circle style="opacity:0.1;enable-background:new    ;" cx="413.115" cy="438.163" r="3.823"/>
<circle style="opacity:0.1;enable-background:new    ;" cx="397.003" cy="418.642" r="3.823"/>
<path style="fill:#D1D3D3;" d="M367.055,456.299h-43.694V284.644c0-37.144-30.22-67.365-67.365-67.365s-67.365,30.221-67.365,67.365
	v171.654h-43.694V284.644c0-61.238,49.821-111.059,111.059-111.059s111.059,49.821,111.059,111.059V456.299z"/>
<path style="opacity:0.1;enable-background:new    ;" d="M144.937,284.644v8.19h43.694v-8.19c0-2.776,0.188-5.507,0.517-8.195
	h-43.907C145.042,279.156,144.937,281.888,144.937,284.644z M247.807,173.889v43.906c2.686-0.328,5.415-0.516,8.189-0.516
	c2.776,0,5.507,0.189,8.196,0.517v-43.907c-2.707-0.199-5.44-0.303-8.196-0.303C253.242,173.585,250.511,173.69,247.807,173.889z
	 M144.937,402.078h43.694v-16.385h-43.694V402.078z M144.937,347.456h43.694v-16.385h-43.694V347.456z M171.923,212.158
	l31.034,31.033c3.38-4.316,7.272-8.208,11.587-11.587l-31.034-31.031C179.37,204.146,175.497,208.019,171.923,212.158z
	 M328.488,200.575l-31.033,31.031c4.315,3.381,8.206,7.272,11.585,11.588l31.034-31.033
	C336.5,208.022,332.627,204.149,328.488,200.575z M366.753,276.449h-43.907c0.328,2.688,0.517,5.419,0.517,8.195v8.19h43.694v-8.19
	C367.055,281.888,366.95,279.156,366.753,276.449z M323.361,347.456h43.694v-16.385h-43.694V347.456z M323.361,402.078h43.694
	v-16.385h-43.694V402.078z"/>
<circle style="opacity:0.1;enable-background:new    ;" cx="56.824" cy="445.809" r="3.823"/>
<circle style="fill:#FFB819;" cx="422.4" cy="83.084" r="52.001"/>
<path style="fill:#7CDFA8;" d="M283.188,428.201c9.48-9.479,18.903-40.381,17.326-41.959c-1.578-1.578-32.48,7.845-41.959,17.326
	c-9.48,9.482-11.652,22.679-4.849,29.482C260.506,439.851,273.707,437.682,283.188,428.201z"/>
<path style="fill:#00AD68;" d="M235.678,367.434c-9.48-9.479-18.903-40.381-17.326-41.959c1.578-1.578,32.48,7.845,41.959,17.326
	c9.48,9.482,11.652,22.679,4.849,29.482C258.36,379.085,245.159,376.916,235.678,367.434z"/>
<path style="fill:#7CDFA8;" d="M429.839,271.826c9.48-9.482,18.903-40.383,17.326-41.959c-1.578-1.578-32.48,7.845-41.959,17.326
	c-9.48,9.482-11.652,22.679-4.849,29.48C407.158,283.477,420.359,281.305,429.839,271.826z"/>
<path style="fill:#218649;" d="M81.622,281.664c-9.48-9.479-18.903-40.381-17.326-41.959c1.578-1.578,32.48,7.845,41.959,17.326
	c9.48,9.482,11.652,22.679,4.849,29.482C104.304,293.315,91.103,291.145,81.622,281.664z"/>
<g>
</g>
<g>
</g>
<g>
</g>
<g>
</g>
<g>
</g>
<g>
</g>
<g>
</g>
<g>
</g>
<g>
</g>
<g>
</g>
<g>
</g>
<g>
</g>
<g>
</g>
<g>
</g>
<g>
</g>
</svg>
