<?xml version="1.0" encoding="iso-8859-1"?>
<!-- Generator: Adobe Illustrator 19.0.0, SVG Export Plug-In . SVG Version: 6.00 Build 0)  -->
<svg version="1.1" id="Layer_1" xmlns="http://www.w3.org/2000/svg" xmlns:xlink="http://www.w3.org/1999/xlink" x="0px" y="0px"
	 viewBox="0 0 512 512" style="enable-background:new 0 0 512 512;" xml:space="preserve">
<path style="fill:#333E48;" d="M483.588,266.857c-1.687-15.391-12.404-27.566-27.565-27.566H49.362
	c-15.161,0-27.566,12.405-27.566,27.566v55.778h138.277l11.153-14.246h155.71l36.018,14.246h127.25L483.588,266.857z"/>
<path style="fill:#D1D3D3;" d="M367.379,186.517c-8.094-12.82-27.121-23.309-42.281-23.309H130.32
	c-15.162,0-30.984,11.924-35.162,26.499L81.01,239.071c-0.022,0.074-0.036,0.148-0.058,0.221h26.193
	c0,11.761-3.307,63.409,30.322,83.343h263.229v-83.343L367.379,186.517z"/>
<polygon style="fill:#FFB819;" points="484.166,271.733 451.176,271.733 451.176,298.531 487.344,298.531 "/>
<path style="fill:#FFFFFF;" d="M457.427,298.531h-9.082c-2.115,0-3.847-1.731-3.847-3.846v-19.106c0-2.116,1.732-3.846,3.847-3.846
	h9.082V298.531z"/>
<path style="opacity:0.1;enable-background:new    ;" d="M126.505,262.297c-34.898,0-63.619,26.413-67.283,60.338h134.566
	C190.124,288.71,161.402,262.297,126.505,262.297z"/>
<circle style="fill:#333E48;" cx="126.5" cy="329.984" r="55.558"/>
<circle style="fill:#A4A9AD;" cx="126.5" cy="329.984" r="28.162"/>
<path style="opacity:0.1;enable-background:new    ;" d="M370.965,262.297c-34.899,0-63.62,26.413-67.284,60.338h134.566
	C434.584,288.71,405.862,262.297,370.965,262.297z"/>
<circle style="fill:#333E48;" cx="370.961" cy="329.984" r="55.559"/>
<g>
	<circle style="fill:#A4A9AD;" cx="370.961" cy="329.984" r="28.162"/>
	<path style="fill:#A4A9AD;" d="M512,325.456c0,5.641-4.614,10.257-10.257,10.257h-23.078c-5.64,0-10.257-4.616-10.257-10.257
		v-16.668c0-5.641,4.617-10.258,10.257-10.258h23.078c5.642,0,10.257,4.616,10.257,10.258V325.456z"/>
	<path style="fill:#A4A9AD;" d="M43.591,325.456c0,5.641-4.616,10.257-10.257,10.257H10.256C4.616,335.713,0,331.098,0,325.456
		v-16.668c0-5.641,4.616-10.258,10.256-10.258h23.079c5.641,0,10.257,4.616,10.257,10.258V325.456z"/>
</g>
<rect x="21.796" y="271.732" style="fill:#FFB819;" width="29.832" height="26.798"/>
<path style="fill:#FFFFFF;" d="M45.373,298.531h9.081c2.117,0,3.848-1.731,3.848-3.846v-19.106c0-2.116-1.731-3.846-3.848-3.846
	h-9.081V298.531z"/>
<path style="fill:#333E48;" d="M241.951,196.907c0-6.021,4.926-10.948,10.948-10.948h73.737c6.021,0,13.634,4.129,16.919,9.176
	l17.061,26.222c3.284,5.047,1.044,9.176-4.977,9.176h-102.74c-6.021,0-10.948-4.926-10.948-10.948v-22.679H241.951z"/>
<path style="opacity:0.1;enable-background:new    ;" d="M343.554,195.136c-3.284-5.047-10.897-9.177-16.919-9.177h-73.737
	c-6.021,0-10.948,4.926-10.948,10.948v10.198c0-6.021,4.926-10.948,10.948-10.948h82.495c3.617,0,7.802,1.495,11.285,3.779
	L343.554,195.136z"/>
<path style="fill:#333E48;" d="M131.878,196.381c1.842-5.732,8.278-10.422,14.299-10.422h62.241c6.021,0,10.948,4.926,10.948,10.948
	v22.679c0,6.021-4.926,10.948-10.948,10.948h-76.571c-6.021,0-9.44-4.69-7.597-10.422L131.878,196.381z"/>
<path style="opacity:0.1;enable-background:new    ;" d="M208.416,185.959h-62.241c-6.021,0-12.456,4.691-14.299,10.422
	l-1.828,5.685c2.897-3.486,7.424-5.91,11.747-5.91h66.62c6.021,0,10.948,4.926,10.948,10.948v-10.198
	C219.364,190.886,214.437,185.959,208.416,185.959z"/>
<path style="fill:#FF5959;" d="M269.231,137.404c0-6.021-4.926-10.948-10.948-10.948h-53.144c-6.021,0-10.948,4.926-10.948,10.948
	v14.857c0,6.021,4.926,10.948,10.948,10.948h53.144c6.021,0,10.948-4.926,10.948-10.948V137.404z"/>
<path style="fill:#D68231;" d="M234.658,298.119c-1.764-0.63-4.655-0.63-6.42,0l-13.612,4.84c-1.766,0.628-3.167-0.392-3.118-2.264
	l0.397-14.44c0.051-1.874-0.842-4.623-1.985-6.11l-8.811-11.448c-1.143-1.486-0.605-3.135,1.192-3.665l13.855-4.083
	c1.8-0.53,4.134-2.229,5.196-3.775l8.166-11.917c1.062-1.546,2.795-1.546,3.855,0l8.166,11.917c1.061,1.546,3.399,3.245,5.196,3.775
	l13.855,4.083c1.799,0.53,2.333,2.18,1.19,3.665l-8.807,11.448c-1.145,1.487-2.035,4.236-1.986,6.11l0.397,14.44
	c0.051,1.873-1.352,2.892-3.119,2.264L234.658,298.119z"/>
<g style="opacity:0.2;">
	<path d="M181.884,261.853h-47.453c-4.536,0-8.211-3.676-8.211-8.211c0-4.535,3.675-8.211,8.211-8.211h47.453
		c4.536,0,8.211,3.676,8.211,8.211C190.095,258.176,186.419,261.853,181.884,261.853z"/>
</g>
<g style="opacity:0.2;">
	<path d="M343.511,261.853h-58.4c-4.536,0-8.211-3.676-8.211-8.211c0-4.535,3.675-8.211,8.211-8.211h58.4
		c4.536,0,8.211,3.676,8.211,8.211C351.722,258.176,348.047,261.853,343.511,261.853z"/>
</g>
<g>
</g>
<g>
</g>
<g>
</g>
<g>
</g>
<g>
</g>
<g>
</g>
<g>
</g>
<g>
</g>
<g>
</g>
<g>
</g>
<g>
</g>
<g>
</g>
<g>
</g>
<g>
</g>
<g>
</g>
</svg>
