<?xml version="1.0" encoding="iso-8859-1"?>
<!-- Generator: Adobe Illustrator 19.0.0, SVG Export Plug-In . SVG Version: 6.00 Build 0)  -->
<svg version="1.1" id="Layer_1" xmlns="http://www.w3.org/2000/svg" xmlns:xlink="http://www.w3.org/1999/xlink" x="0px" y="0px"
	 viewBox="0 0 512 512" style="enable-background:new 0 0 512 512;" xml:space="preserve">
<path style="fill:#D1D3D3;" d="M323.476,163.184c0.956,5.945-3.189,10.809-9.21,10.809h-32.754c-6.021,0-10.166-4.864-9.21-10.809
	l3.562-22.173c0.956-5.945,6.664-10.809,12.685-10.809h18.682c6.021,0,11.729,4.864,12.684,10.809L323.476,163.184z"/>
<path style="opacity:0.1;enable-background:new    ;" d="M323.476,163.184l-1.781-11.087h-47.612l-1.781,11.087
	c-0.956,5.945,3.189,10.809,9.21,10.809h32.754C320.288,173.992,324.433,169.127,323.476,163.184z"/>
<path style="fill:#FFB819;" d="M483.588,263.111c-1.687-15.391-12.404-27.566-27.565-27.566h-55.325l-33.318-52.774
	c-8.094-12.82-27.121-23.31-42.281-23.31H130.32c-15.162,0-30.984,11.925-35.162,26.499L81.01,235.322
	c-0.022,0.074-0.036,0.148-0.058,0.222H49.362c-15.161,0-27.566,12.404-27.566,27.566v55.777h468.408L483.588,263.111z"/>
<polygon style="fill:#00B3E3;" points="484.166,267.986 451.176,267.986 451.176,294.783 487.344,294.783 "/>
<path style="fill:#FFFFFF;" d="M457.427,294.783h-9.082c-2.115,0-3.847-1.73-3.847-3.847v-19.105c0-2.116,1.732-3.847,3.847-3.847
	h9.082V294.783z"/>
<path style="opacity:0.1;enable-background:new    ;" d="M126.505,258.55c-34.898,0-63.619,26.413-67.283,60.338h134.566
	C190.124,284.963,161.402,258.55,126.505,258.55z"/>
<circle style="fill:#333E48;" cx="126.5" cy="326.239" r="55.558"/>
<circle style="fill:#A4A9AD;" cx="126.5" cy="326.239" r="28.162"/>
<path style="opacity:0.1;enable-background:new    ;" d="M370.965,258.55c-34.899,0-63.62,26.413-67.284,60.338h134.566
	C434.584,284.963,405.862,258.55,370.965,258.55z"/>
<circle style="fill:#333E48;" cx="370.961" cy="326.239" r="55.559"/>
<circle style="fill:#A4A9AD;" cx="370.961" cy="326.239" r="28.162"/>
<g>
	<path style="fill:#333E48;" d="M512,321.708c0,5.641-4.614,10.257-10.257,10.257h-23.078c-5.64,0-10.257-4.616-10.257-10.257
		V305.04c0-5.64,4.617-10.257,10.257-10.257h23.078c5.642,0,10.257,4.617,10.257,10.257V321.708z"/>
	<path style="fill:#333E48;" d="M43.591,321.708c0,5.641-4.616,10.257-10.257,10.257H10.256C4.616,331.965,0,327.349,0,321.708
		V305.04c0-5.64,4.616-10.257,10.256-10.257h23.079c5.641,0,10.257,4.617,10.257,10.257V321.708z"/>
</g>
<rect x="21.796" y="267.987" style="fill:#00B3E3;" width="29.832" height="26.799"/>
<path style="fill:#FFFFFF;" d="M45.373,294.783h9.081c2.117,0,3.848-1.73,3.848-3.847v-19.105c0-2.116-1.731-3.847-3.848-3.847
	h-9.081V294.783z"/>
<path style="fill:#00B3E3;" d="M241.951,193.158c0-6.021,4.926-10.948,10.948-10.948h73.737c6.021,0,13.634,4.129,16.919,9.177
	l17.061,26.221c3.284,5.047,1.044,9.177-4.977,9.177h-102.74c-6.021,0-10.948-4.926-10.948-10.948v-22.68H241.951z"/>
<g>
	<path style="fill:#333E48;" d="M241.951,193.158c0-6.021,4.926-10.948,10.948-10.948h73.737c6.021,0,13.634,4.129,16.919,9.177
		l17.061,26.221c3.284,5.047,1.044,9.177-4.977,9.177h-102.74c-6.021,0-10.948-4.926-10.948-10.948v-22.68H241.951z"/>
	<path style="fill:#333E48;" d="M131.878,192.634c1.842-5.731,8.278-10.422,14.299-10.422h62.241
		c6.021,0,10.948,4.926,10.948,10.948v22.68c0,6.021-4.926,10.948-10.948,10.948h-76.571c-6.021,0-9.44-4.691-7.597-10.423
		L131.878,192.634z"/>
</g>
<path style="opacity:0.2;enable-background:new    ;" d="M343.554,191.388c-3.284-5.047-10.897-9.177-16.919-9.177h-73.737
	c-6.021,0-10.948,4.926-10.948,10.948v10.198c0-6.021,4.926-10.948,10.948-10.948h82.495c3.617,0,7.802,1.495,11.285,3.779
	L343.554,191.388z"/>
<path style="opacity:0.2;enable-background:new    ;" d="M208.416,182.211h-62.241c-6.021,0-12.456,4.691-14.299,10.422
	l-1.828,5.685c2.897-3.486,7.424-5.91,11.747-5.91h66.62c6.021,0,10.948,4.926,10.948,10.948v-10.198
	C219.364,187.137,214.437,182.211,208.416,182.211z"/>
<g>
	<rect x="175.272" y="249.091" style="fill:#333E48;" width="15.762" height="15.764"/>
	<rect x="191.037" y="264.856" style="fill:#333E48;" width="15.762" height="15.762"/>
	<rect x="206.801" y="249.091" style="fill:#333E48;" width="15.764" height="15.764"/>
	<rect x="222.566" y="264.856" style="fill:#333E48;" width="15.762" height="15.762"/>
	<rect x="238.33" y="249.091" style="fill:#333E48;" width="15.764" height="15.764"/>
	<rect x="254.095" y="264.856" style="fill:#333E48;" width="15.762" height="15.762"/>
	<rect x="269.849" y="249.091" style="fill:#333E48;" width="15.762" height="15.764"/>
	<rect x="285.613" y="264.856" style="fill:#333E48;" width="15.764" height="15.762"/>
	<rect x="301.378" y="249.091" style="fill:#333E48;" width="15.762" height="15.764"/>
</g>
<g>
	<rect x="301.378" y="264.856" style="fill:#FFFFFF;" width="15.762" height="15.762"/>
	<rect x="285.613" y="249.091" style="fill:#FFFFFF;" width="15.764" height="15.764"/>
	<rect x="269.849" y="264.856" style="fill:#FFFFFF;" width="15.762" height="15.762"/>
	<rect x="254.095" y="249.091" style="fill:#FFFFFF;" width="15.762" height="15.764"/>
	<rect x="238.33" y="264.856" style="fill:#FFFFFF;" width="15.764" height="15.762"/>
	<rect x="222.566" y="249.091" style="fill:#FFFFFF;" width="15.762" height="15.764"/>
	<rect x="206.801" y="264.856" style="fill:#FFFFFF;" width="15.764" height="15.762"/>
	<rect x="191.037" y="249.091" style="fill:#FFFFFF;" width="15.762" height="15.764"/>
	<rect x="175.272" y="264.856" style="fill:#FFFFFF;" width="15.762" height="15.762"/>
</g>
<g>
</g>
<g>
</g>
<g>
</g>
<g>
</g>
<g>
</g>
<g>
</g>
<g>
</g>
<g>
</g>
<g>
</g>
<g>
</g>
<g>
</g>
<g>
</g>
<g>
</g>
<g>
</g>
<g>
</g>
</svg>
