<?xml version="1.0"?>
<svg xmlns="http://www.w3.org/2000/svg" height="512px" viewBox="-69 0 512 512" width="512px" class=""><g><path d="m218.859375 180.214844h-43.972656c-14.050781 0-25.480469 11.433594-25.480469 25.484375v280.816406c0 14.054687 11.429688 25.484375 25.480469 25.484375h43.972656c14.050781 0 25.484375-11.429688 25.484375-25.484375v-280.816406c0-14.050781-11.433594-25.484375-25.484375-25.484375zm0 0" fill="#65cee3" data-original="#65CEE3" style="fill:#5F7D95" class="" data-old_color="#65cee3"/><path d="m218.859375 180.214844h-23.984375c14.050781 0 25.484375 11.433594 25.484375 25.484375v280.816406c0 14.054687-11.433594 25.484375-25.484375 25.484375h23.984375c14.050781 0 25.484375-11.429688 25.484375-25.484375v-280.816406c0-14.050781-11.433594-25.484375-25.484375-25.484375zm0 0" fill="#1bacd6" data-original="#1BACD6" class="" style="fill:#374957" data-old_color="#1bacd6"/><path d="m195.675781 443.027344c-4.136719 0-7.492187-3.355469-7.492187-7.496094v-165.070312c0-4.136719 3.355468-7.492188 7.492187-7.492188 4.140625 0 7.496094 3.355469 7.496094 7.492188v165.070312c0 4.140625-3.355469 7.496094-7.496094 7.496094zm0 0" fill="#1bacd6" data-original="#1BACD6" class="" style="fill:#374957" data-old_color="#1bacd6"/><path d="m353.296875.332031h-312.847656c-4.140625 0-7.492188 3.355469-7.492188 7.496094v234.632813c0 16.753906 13.628907 30.386718 30.386719 30.386718h267.058594c16.757812 0 30.386718-13.632812 30.386718-30.386718v-234.632813c.003907-4.140625-3.351562-7.496094-7.492187-7.496094zm0 0" fill="#f195d6" data-original="#F195D6" class="active-path" style="fill:#69E781" data-old_color="#f195d6"/><g fill="#e480be"><path d="m353.296875.332031h-23.984375c4.140625 0 7.496094 3.355469 7.496094 7.496094v234.632813c0 16.753906-13.632813 30.386718-30.390625 30.386718h23.984375c16.757812 0 30.390625-13.632812 30.390625-30.386718v-234.632813c0-4.140625-3.355469-7.496094-7.496094-7.496094zm0 0" data-original="#E480BE" style="fill:#00AF80" class="" data-old_color="#E480BE"/><path d="m81.949219 0v95.769531c0 4.140625 3.355469 7.496094 7.496093 7.496094 4.140626 0 7.492188-3.355469 7.492188-7.496094v-95.769531zm0 0" data-original="#E480BE" style="fill:#00AF80" class="" data-old_color="#E480BE"/><path d="m124.921875 0v67.789062c0 4.140626 3.355469 7.496094 7.492187 7.496094 4.140626 0 7.496094-3.355468 7.496094-7.496094v-67.789062zm0 0" data-original="#E480BE" style="fill:#00AF80" class="" data-old_color="#E480BE"/><path d="m167.894531 0v95.769531c0 4.140625 3.351563 7.496094 7.492188 7.496094s7.496093-3.355469 7.496093-7.496094v-95.769531zm0 0" data-original="#E480BE" style="fill:#00AF80" class="" data-old_color="#E480BE"/><path d="m210.863281 0v67.789062c0 4.140626 3.355469 7.496094 7.496094 7.496094s7.496094-3.355468 7.496094-7.496094v-67.789062zm0 0" data-original="#E480BE" style="fill:#00AF80" class="" data-old_color="#E480BE"/><path d="m253.835938 0v95.769531c0 4.140625 3.355468 7.496094 7.496093 7.496094s7.496094-3.355469 7.496094-7.496094v-95.769531zm0 0" data-original="#E480BE" style="fill:#00AF80" class="" data-old_color="#E480BE"/><path d="m296.808594 0v67.789062c0 4.140626 3.355468 7.496094 7.496094 7.496094 4.140624 0 7.496093-3.355468 7.496093-7.496094v-67.789062zm0 0" data-original="#E480BE" style="fill:#00AF80" class="" data-old_color="#E480BE"/></g><path d="m52.65625 314.503906c-2.464844 0-4.769531 1.210938-6.171875 3.242188-4.757813 6.902344-46.484375 68.1875-46.484375 94.699218 0 29.035157 23.621094 52.65625 52.65625 52.65625s52.652344-23.621093 52.652344-52.65625c0-26.507812-41.726563-87.796874-46.484375-94.699218-1.398438-2.027344-3.703125-3.242188-6.167969-3.242188zm0 0" fill="#f195d6" data-original="#F195D6" class="active-path" style="fill:#69E781" data-old_color="#f195d6"/><path d="m340.691406 295.546875c-1.398437-2.027344-3.707031-3.238281-6.171875-3.238281-2.460937 0-4.769531 1.210937-6.167969 3.238281-5.535156 8.027344-33.132812 49.015625-33.132812 67.957031 0 21.671875 17.628906 39.304688 39.300781 39.304688s39.304688-17.632813 39.304688-39.304688c0-18.9375-27.597657-59.929687-33.132813-67.957031zm0 0" fill="#f195d6" data-original="#F195D6" class="active-path" style="fill:#69E781" data-old_color="#f195d6"/><path d="m58.828125 317.746094c-1.402344-2.027344-3.707031-3.242188-6.171875-3.242188s-4.769531 1.210938-6.171875 3.242188c-.816406 1.183594-2.722656 3.972656-5.320313 7.914062 12.535157 19.007813 41.164063 64.824219 41.164063 86.785156 0 25.085938-17.640625 46.117188-41.164063 51.375 3.699219.828126 7.542969 1.277344 11.492188 1.277344 29.035156 0 52.65625-23.621094 52.65625-52.652344 0-26.507812-41.726562-87.796874-46.484375-94.699218zm0 0" fill="#e480be" data-original="#E480BE" style="fill:#00AF80" class="" data-old_color="#e480be"/><path d="m340.691406 295.546875c-1.398437-2.027344-3.707031-3.238281-6.171875-3.238281-2.460937 0-4.769531 1.210937-6.167969 3.238281-1.070312 1.550781-2.964843 4.339844-5.324218 7.953125 9.847656 15.089844 27.8125 44.722656 27.8125 60.003906 0 17.675782-11.726563 32.660156-27.8125 37.585938 3.636718 1.117187 7.496094 1.71875 11.492187 1.71875 21.675781 0 39.304688-17.632813 39.304688-39.304688 0-18.9375-27.597657-59.929687-33.132813-67.957031zm0 0" fill="#e480be" data-original="#E480BE" style="fill:#00AF80" class="" data-old_color="#e480be"/><path d="m360.792969 169.390625h-327.835938v73.070313c0 16.78125 13.605469 30.386718 30.386719 30.386718h267.058594c16.78125 0 30.386718-13.605468 30.386718-30.386718v-73.070313zm0 0" fill="#d0cfd1" data-original="#D0CFD1" style="fill:#D0CFD1" class=""/><path d="m336.808594 242.460938c0 16.753906-13.632813 30.386718-30.390625 30.386718h23.984375c16.757812 0 30.390625-13.632812 30.390625-30.386718v-73.070313h-23.984375zm0 0" fill="#9c9b9d" data-original="#9C9B9D" class="" style="fill:#9C9B9D" data-old_color="#9c9b9d"/></g> </svg>
