<svg id="Layer_1" enable-background="new 0 0 512 512" height="512" viewBox="0 0 512 512" width="512" xmlns="http://www.w3.org/2000/svg"><g><path d="m100.562 168.314s3.613-144.478 136.57-166.042 174.868 115.008 174.868 212.045-101.163 166.761-142.351 245.828-133.68 54.628-153.913 12.938-15.174-304.769-15.174-304.769z" fill="#fdba91"/><path d="m248.35.817c99.794 10.718 132.657 127.591 132.657 213.5 0 97.037-101.163 166.761-142.351 245.828-16.254 31.202-40.497 46.275-65.136 50.54 33.624 5.641 72.98-6.101 96.13-50.54 41.187-79.067 142.35-148.791 142.35-245.828 0-94.252-39.548-225.785-163.65-213.5z" fill="#fc997d"/><path d="m207.316 252.873c10.982-37.34-66.727-72.551-40.189-149.112 13.73-39.611 44.767-67.355 88.669-67.355 73.024 0 103.806 93.388 103.806 162.3 0 57.301-61.923 175.763-162.122 175.763-39.627 0-44.406-33.152-44.406-55.699.001-41.626 43.26-28.557 54.242-65.897z" fill="#fc997d"/><g fill="#eb866c"><path d="m255.796 36.406c-5.643 0-11.07.466-16.278 1.349 62.461 11.626 89.091 96.865 89.091 160.951 0 53.723-54.431 161.207-143.805 174.421 3.773.862 7.972 1.342 12.677 1.342 100.199 0 162.122-118.462 162.122-175.763 0-68.911-30.782-162.3-103.807-162.3z"/><path d="m278.43 264.29c-1.164 3.952-5.327 6.251-9.32 5.07-3.97-1.18-6.24-5.35-5.06-9.32.07-.26 7.65-26.86-3.21-44.64-4.96-8.13-12.95-13.15-24.43-15.37-33.36-6.43-54.14-17.41-65.12-24.85-3.95-8.22-7.09-17.09-8.64-26.76 10.266 9.099 26.793 27.276 76.6 36.89 15.67 3.02 27.25 10.54 34.44 22.34 14.29 23.52 5.14 55.3 4.74 56.64z"/></g></g></svg>