<svg id="Capa_1" enable-background="new 0 0 512 512" height="512" viewBox="0 0 512 512" width="512" xmlns="http://www.w3.org/2000/svg"><g><g><path clip-rule="evenodd" d="m511.983 257.041c-61.496-83.109-172.851-121.885-255.986-122.674-94.277-6.638-191.8 46.935-255.986 122.674.088 1.491.76 3.129 2.193 6.463 84.89 198.121 417.169 218.357 507.849-.439 1.228-3.012 1.843-4.621 1.93-6.024z" fill="#f8f7f7" fill-rule="evenodd"/></g><g><path clip-rule="evenodd" d="m255.997 372.17c64.07 0 116.004-51.906 116.004-115.978 0-30.383-11.697-58.047-30.821-78.751-60.268-41.32-114.279-40.326-170.365 0-19.124 20.704-30.792 48.368-30.792 78.751-.001 64.072 51.934 115.978 115.974 115.978z" fill="#75cef8" fill-rule="evenodd"/></g><g><path clip-rule="evenodd" d="m372.001 256.193c0-30.383-11.697-58.047-30.821-78.751-5.293-1.257-10.615-8.919-15.879-9.972 12.574 18.54 19.943 47.432 19.943 71.558 0 64.042-51.934 115.978-116.004 115.978-17.341 0-33.804-3.802-48.601-10.644 20.265 17.341 46.583 27.81 75.357 27.81 64.071-.002 116.005-51.908 116.005-115.979z" fill="#60b7ff" fill-rule="evenodd"/></g><g><path clip-rule="evenodd" d="m312.025 256.193c0-30.939-25.09-56.03-56.028-56.03s-55.999 25.09-55.999 56.03 25.061 56.03 55.999 56.03c5.644 0 11.054-.848 16.171-2.369l36.026-33.249c2.457-6.317 3.831-13.219 3.831-20.412z" fill="#685e68" fill-rule="evenodd"/></g><g><path clip-rule="evenodd" d="m288.544 316.082c13.598 0 24.622-11.025 24.622-24.623 0-5.585-1.842-10.732-4.971-14.855-4.503-5.936-11.638-9.767-19.651-9.767-13.598 0-24.622 11.025-24.622 24.623 0 7.311 3.187 13.861 8.246 18.394 4.357 3.86 10.088 6.228 16.376 6.228z" fill="#f8f7f7" fill-rule="evenodd"/></g><g><path clip-rule="evenodd" d="m509.907 249.233c-72.521-223.095-439.686-194.963-507.645 0-1.521 4.328-2.369 5.936-2.252 7.808 87.58-60.153 172.851-89.513 255.986-90.273 83.136.76 168.406 30.12 255.986 90.273.147-1.93-.671-3.451-2.075-7.808z" fill="#fed2a4" fill-rule="evenodd"/></g><g><path clip-rule="evenodd" d="m312.025 256.193c0-30.939-25.09-56.03-56.028-56.03-13.042 0-25.061 4.474-34.564 11.96 3.889-.877 7.925-1.316 12.077-1.316 30.938 0 56.028 25.09 56.028 56.03 7.603.322 14.329 4.065 18.657 9.767 2.456-6.316 3.83-13.218 3.83-20.411z" fill="#554e56" fill-rule="evenodd"/></g><g><path clip-rule="evenodd" d="m509.907 249.233c-31.055-95.508-116.092-144.958-208.526-155.017 39.038 16.435 71.497 41.437 93.429 71.821 8.246 11.405 15.001 23.599 20.06 36.408 32.049 13.978 64.421 32.138 97.113 54.597.146-1.931-.672-3.452-2.076-7.809z" fill="#ffbd86" fill-rule="evenodd"/></g><g><path clip-rule="evenodd" d="m511.983 257.041c-32.693-22.459-65.064-40.618-97.113-54.597 6.93 17.546 10.673 36.232 10.673 55.62 0 65.914-43.308 123.815-108.576 156.655 82.112-15.002 156.855-64.276 193.086-151.654 1.228-3.012 1.843-4.621 1.93-6.024z" fill="#e1e1e1" fill-rule="evenodd"/></g></g></svg>