<svg id="Layer_1" enable-background="new 0 0 512 512" height="512" viewBox="0 0 512 512" width="512" xmlns="http://www.w3.org/2000/svg"><g><g><path d="m468.118 316.118-12.118-12.118v-224h-160v176l-192 96h-40c-22.091 0-40 17.909-40 40 0 22.091 17.909 40 40 40h40 192 124.118c37.49 0 67.882-30.392 67.882-67.882 0-18.004-7.152-35.27-19.882-48z" fill="#fab991"/></g><g><path d="m468.118 316.118-12.118-12.118v-224h-48v304c0 17.673-14.327 32-32 32v16h44.118c37.49 0 67.882-30.392 67.882-67.882 0-18.004-7.152-35.27-19.882-48z" fill="#f0915a"/></g><g><path d="m376 272c-17.673 0-32-14.327-32-32v-32c0-17.673 14.327-32 32-32 17.673 0 32 14.327 32 32v32c0 17.673-14.327 32-32 32z" fill="#f0915a"/></g><g><path d="m376 240c-17.673 0-32-14.327-32-32 0-17.673 14.327-32 32-32 17.673 0 32 14.327 32 32 0 17.673-14.327 32-32 32z" fill="#fab991"/></g><g><path d="m82.667 370.667h10.667c4.418 0 8-3.582 8-8v-10.667h-37.334c0 10.309 8.357 18.667 18.667 18.667z" fill="#f0915a"/></g><g><path d="m64 432h312v-16h-328c-13.255 0-24-10.745-24-24 0 22.091 17.909 40 40 40z" fill="#f0915a"/></g></g></svg>