<svg id="Layer_1" enable-background="new 0 0 512 512" height="512" viewBox="0 0 512 512" width="512" xmlns="http://www.w3.org/2000/svg"><g><g><path clip-rule="evenodd" d="m198.519 347.726c64.29 142.35-169.395 148.301-107.455-.076.852-2.041-.631-4.295-2.843-4.295h-85.13c-1.707 0-3.091 1.384-3.091 3.091v156.742c0 1.707 1.384 3.091 3.091 3.091h249.245 256.574c1.707 0 3.091-1.384 3.091-3.091v-156.742c0-1.707-1.384-3.091-3.091-3.091h-86.146c-2.246 0-3.73 2.323-2.806 4.371 64.263 142.35-169.395 148.302-107.454-.076.852-2.041-.631-4.295-2.843-4.295h-57.325-51.01c-2.248 0-3.731 2.324-2.807 4.371z" fill="#ffeee6" fill-rule="evenodd"/></g><g><path clip-rule="evenodd" d="m127.35 337.748c-57.762 111.292 67.428 108.81 50.111 38.548-3.738-15.244-10.425-29.232-10.98-38.548-6.055-103.835 67.684-268.31 116.288-328.498 1.449-1.794-.696-4.246-2.672-3.057-80.689 48.544-147.275 211.239-152.747 331.555z" fill="#365e7d" fill-rule="evenodd"/></g><g><path clip-rule="evenodd" d="m144.492 343.151c.555 9.345 7.242 23.333 11.009 38.577 5.227 21.289-2.628 36.358-14.484 43.921 21.084 1.84 44.621-16.208 36.444-49.353-3.738-15.244-10.425-29.232-10.98-38.548-6.056-103.837 67.687-268.317 116.291-328.502 1.453-1.799-.7-4.241-2.681-3.049-10.973 6.604-21.686 15.322-32.019 25.767-47.717 70.117-109.129 216.102-103.58 311.187z" fill="#2b4d66" fill-rule="evenodd"/></g><g><path d="m25.041 429.185c-1.983 0-3.962-.764-5.467-2.295l-.058-.059c-2.331-2.371-2.968-6.008-1.391-8.936 2.825-5.245 9.78-5.573 13.138-1.047 2.095 2.824 1.996 6.84-.263 9.534-1.566 1.867-3.765 2.803-5.959 2.803z" fill="#ffbc85"/></g><g><path d="m75.181 476.845c-1.961 0-3.919-.747-5.421-2.248l-.058-.058c-2.355-2.355-3.024-5.995-1.463-8.937 2.79-5.259 9.734-5.64 13.126-1.143 2.122 2.813 2.051 6.84-.199 9.552-1.564 1.884-3.775 2.834-5.985 2.834z" fill="#ffbc85"/></g><g><path d="m251.883 401.267c-1.961 0-3.919-.747-5.421-2.249l-.058-.058c-2.355-2.355-3.024-5.995-1.463-8.937 2.79-5.259 9.734-5.64 13.126-1.143 2.122 2.813 2.051 6.84-.199 9.552-1.563 1.885-3.775 2.835-5.985 2.835z" fill="#ffbc85"/></g><g><path d="m234.946 467.237c-1.961 0-3.919-.747-5.421-2.249l-.058-.058c-2.355-2.355-3.024-5.995-1.463-8.937 2.79-5.259 9.734-5.64 13.126-1.143 2.122 2.813 2.051 6.84-.199 9.552-1.564 1.885-3.776 2.835-5.985 2.835z" fill="#ffbc85"/></g><g><path clip-rule="evenodd" d="m349.111 337.602c-57.762 111.292 67.428 108.81 50.111 38.548-3.767-15.244-10.454-29.232-10.98-38.548-6.056-103.832 67.654-268.301 116.28-328.493 1.45-1.794-.695-4.247-2.672-3.057-80.685 48.549-147.268 211.238-152.739 331.55z" fill="#365e7d" fill-rule="evenodd"/></g><g><path clip-rule="evenodd" d="m366.252 343.005c.526 9.345 7.242 23.304 10.98 38.577 5.256 21.289-2.599 36.358-14.484 43.921 21.113 1.84 44.621-16.208 36.473-49.353-3.767-15.244-10.454-29.232-10.98-38.548-6.055-103.845 67.673-268.343 116.299-328.516 1.453-1.799-.698-4.24-2.68-3.049-10.995 6.606-21.717 15.329-32.057 25.782-47.716 70.116-109.099 216.101-103.551 311.186z" fill="#2b4d66" fill-rule="evenodd"/></g><g><path clip-rule="evenodd" d="m270.82 409.354c0 37.292-14.192 71.284-37.495 96.924h19.011 256.574c1.707 0 3.091-1.384 3.091-3.091v-156.741c0-1.707-1.384-3.091-3.091-3.091h-86.146c-2.246 0-3.73 2.323-2.806 4.371 64.263 142.35-169.395 148.302-107.454-.076.852-2.041-.631-4.295-2.843-4.295h-54.843c10.249 19.77 16.002 42.227 16.002 65.999z" fill="#ffdfcf" fill-rule="evenodd"/></g><g><path d="m450.442 467.959c-2.821 0-5.531-1.549-6.881-4.249l-.029-.058c-1.908-3.817-.361-8.458 3.455-10.366 3.915-1.955 8.691-.281 10.504 3.744 1.668 3.706.089 8.244-3.534 10.084-1.131.573-2.333.845-3.515.845z" fill="#ffbc85"/></g><g><path d="m469.307 392.148c-2.821 0-5.531-1.549-6.881-4.25l-.029-.058c-1.908-3.817-.361-8.458 3.455-10.366 3.914-1.954 8.687-.282 10.502 3.74 1.671 3.704.095 8.244-3.528 10.086-1.132.575-2.335.848-3.519.848z" fill="#ffbc85"/></g></g></svg>