<svg id="Layer_1" enable-background="new 0 0 512 512" height="512" viewBox="0 0 512 512" width="512" xmlns="http://www.w3.org/2000/svg"><g><g fill="#eb866c"><path d="m131.369 237.917c0 34.706-21.243 62.841-47.448 62.841-31.574 0-28.1-30.925-32.628-42.022-4.006-9.817-12.793-14.688-12.793-34.896 0-25.989 13.081-48.764 45.421-48.764 26.205 0 47.448 28.135 47.448 62.841z"/><path d="m380.631 237.917c0 34.706 21.243 62.841 47.448 62.841 31.574 0 28.1-30.925 32.628-42.022 4.006-9.817 12.793-14.688 12.793-34.896 0-25.989-13.081-48.764-45.421-48.764-26.205 0-47.448 28.135-47.448 62.841z"/></g><g fill="#de7459"><path d="m64.271 203.321c-3.953 1.238-6.154 5.446-4.916 9.398 1.238 3.953 5.446 6.153 9.398 4.916 20.417-6.392 30.246 8.127 31.325 9.848 2.159 3.527 6.75 4.629 10.27 2.506 3.547-2.14 4.688-6.749 2.549-10.296-5.545-9.193-22.843-24.445-48.626-16.372z"/><path d="m447.745 203.326c-25.643-8.091-42.846 7.183-48.357 16.389-2.127 3.554-.987 8.185 2.567 10.313 3.562 2.132 8.149.989 10.272-2.558 1.043-1.679 10.774-16.224 31.005-9.84 3.948 1.247 8.163-.945 9.409-4.896 1.246-3.95-.946-8.162-4.896-9.408z"/></g><path d="m340.649 512h-169.298c-2.209 0-4-1.791-4-4v-123.742h177.299v123.742c-.001 2.209-1.792 4-4.001 4z" fill="#fc997d"/><path d="m313.725 384.258v127.742h26.924c2.209 0 4-1.791 4-4v-123.742z" fill="#eb866c"/><path d="m290.817 432.269h-64.074c-22.708 0-44.044-10.86-57.398-29.216l-25.903-35.605c-28.829-39.626-44.357-87.36-44.357-136.352v-74.276c-.001-86.609 70.253-156.82 156.915-156.82 86.662 0 156.915 70.211 156.915 156.82v79.262c0 45.896-13.629 90.761-39.162 128.91l-23.95 35.785c-13.17 19.679-35.297 31.492-58.986 31.492z" fill="#fdba91"/><path d="m256 0c-5.218 0-10.375.261-15.462.758 79.403 7.762 141.453 74.668 141.453 156.062v79.262c0 45.896-13.629 90.761-39.162 128.91l-23.95 35.785c-13.171 19.679-35.298 31.492-58.987 31.492h30.924c23.689 0 45.817-11.813 58.987-31.492l23.95-35.785c25.533-38.149 39.162-83.013 39.162-128.91v-79.262c.001-86.609-70.253-156.82-156.915-156.82z" fill="#fc997d"/><path d="m293.49 286.05c-.01.01-.01.031-.021.041-3.474 4.347-14.957 16.164-37.47 16.164-.732 0-1.453-.01-2.154-.041h-.01s14.462-26.259 16.833-55.331c1.268-15.525-2.216-32.471 7.298-32.554 9.515-.093 21.39 59.998 15.524 71.721z" fill="#fc997d"/><path d="m298.579 278.131c-3.519-2.187-8.143-1.105-10.328 2.413-.088.142-9.095 14.208-32.25 14.208-22.643 0-31.826-13.563-32.285-14.263-2.199-3.475-6.793-4.534-10.294-2.358-3.519 2.186-4.599 6.81-2.413 10.328.54.87 13.589 21.293 44.992 21.293s44.452-20.424 44.992-21.293c2.185-3.518 1.104-8.143-2.414-10.328z" fill="#de7459"/><g fill="#de7459"><path d="m187.33 155.732c-25.91-2.231-47.449 5.643-48.353 5.98-3.878 1.442-5.849 5.75-4.413 9.63 1.436 3.881 5.749 5.865 9.631 4.433.192-.07 19.416-7.032 41.847-5.099 20.282 1.748 30.638 17.604 31.09 18.313 2.197 3.488 6.806 4.554 10.313 2.367 3.515-2.191 4.588-6.817 2.397-10.333-.582-.932-14.57-22.883-42.512-25.291z"/><path d="m373.023 161.712c-.905-.337-22.447-8.212-48.353-5.98-27.943 2.407-41.931 24.358-42.513 25.292-2.183 3.502-1.116 8.094 2.375 10.295 3.476 2.192 8.106 1.166 10.334-2.327.431-.676 10.788-16.565 31.092-18.315 22.426-1.933 41.655 5.028 41.835 5.094 3.882 1.445 8.2-.532 9.644-4.415s-.531-8.2-4.414-9.644z"/></g><path d="m296.006 342.391-.34 4.533c-.763 10.292-8.504 18.708-18.699 20.325-5.968.937-13.143 1.679-20.967 1.679-7.844 0-15.07-.742-21.101-1.69-10.287-1.617-18.07-10.147-18.75-20.531l-.278-4.347c7.803 2.04 21.142 4.502 40.129 4.502 18.895 0 32.192-2.431 40.006-4.471z" fill="#fc997d"/><path d="m311.28 336.605c-1.68-3.77-6.11-5.465-9.886-3.805-.149.065-15.281 6.561-45.394 6.561-29.944 0-45.074-6.423-45.39-6.56-3.766-1.682-8.189-.004-9.892 3.759-1.707 3.774-.03 8.217 3.744 9.924.711.322 17.811 7.877 51.538 7.877s50.826-7.555 51.538-7.877c3.759-1.699 5.422-6.109 3.742-9.879z" fill="#de7459"/></g></svg>