<?xml version="1.0" encoding="iso-8859-1"?>
<!-- Generator: Adobe Illustrator 19.0.0, SVG Export Plug-In . SVG Version: 6.00 Build 0)  -->
<svg version="1.1" id="Capa_1" xmlns="http://www.w3.org/2000/svg" xmlns:xlink="http://www.w3.org/1999/xlink" x="0px" y="0px"
	 viewBox="0 0 512 512" style="enable-background:new 0 0 512 512;" xml:space="preserve">
<path style="fill:#FF1010;" d="M508.394,8.449v173.693c0,4.587-3.666,8.31-8.251,8.432
	c-96.307,2.561-181.468,49.814-235.503,121.789c-38.236,50.908-60.886,114.179-60.886,182.753H13.218
	c0-14.58,0.626-29.011,1.866-43.273C36.759,201.425,244.809,4.341,499.8,0.001C504.52-0.079,508.394,3.728,508.394,8.449z"/>
<path style="fill:#D10000;" d="M264.639,312.362c-38.236,50.908-60.886,114.179-60.886,182.753H13.218
	c0-14.58,0.626-29.011,1.866-43.273c10.604-7.921,23.349-13.095,37.197-14.484c2.205-42.34,37.335-76.112,80.216-76.112
	c2.927,0,5.843,0.159,8.727,0.477c6.161-13.785,15.587-26.074,27.463-35.607c16.828-13.509,38.003-20.953,59.624-20.953
	C241.163,305.162,253.442,307.718,264.639,312.362z"/>
<path style="fill:#FEC007;" d="M508.394,45.905v136.236c0,4.587-3.666,8.31-8.251,8.432
	c-96.307,2.561-181.468,49.814-235.503,121.789c-38.236,50.908-60.886,114.179-60.886,182.753H59.195
	c0-36.55,4.369-72.083,12.608-106.099C119.476,192.128,296.863,45.905,508.394,45.905z"/>
<path style="fill:#FF9300;" d="M264.639,312.362c-38.236,50.908-60.886,114.179-60.886,182.753H59.195
	c0-36.55,4.369-72.083,12.608-106.099c14.739-16.998,36.476-27.771,60.695-27.771c2.927,0,5.843,0.159,8.727,0.477
	c6.161-13.785,15.587-26.074,27.463-35.607c16.828-13.509,38.003-20.953,59.624-20.953
	C241.163,305.162,253.442,307.718,264.639,312.362z"/>
<path style="fill:#00C37A;" d="M508.394,94.947v87.195c0,4.587-3.666,8.31-8.251,8.432
	c-96.307,2.561-181.468,49.814-235.503,121.789c-38.236,50.908-60.886,114.179-60.886,182.753h-95.517
	c0-46.953,8.08-92.007,22.946-133.859C186.236,206.072,334.336,94.947,508.394,94.947z"/>
<path style="fill:#009655;" d="M264.639,312.362c-38.236,50.908-60.886,114.179-60.886,182.753h-95.517
	c0-46.953,8.08-92.007,22.946-133.859c0.435-0.011,0.88-0.011,1.315-0.011c2.927,0,5.843,0.159,8.727,0.477
	c6.161-13.785,15.587-26.074,27.463-35.607c16.828-13.509,38.003-20.953,59.624-20.953
	C241.163,305.162,253.442,307.718,264.639,312.362z"/>
<path style="fill:#0087FF;" d="M508.394,145.547v36.595c0,4.587-3.666,8.31-8.251,8.432
	c-96.307,2.561-181.468,49.814-235.503,121.789c-38.236,50.908-60.886,114.179-60.886,182.753h-44.917
	c0-69.591,20.327-134.421,55.382-188.892c0,0,0,0,0.011,0C276.409,209.571,384.926,145.547,508.394,145.547z"/>
<path style="fill:#005FD1;" d="M264.639,312.362c-38.236,50.908-60.886,114.179-60.886,182.753h-44.917
	c0-69.591,20.327-134.421,55.382-188.892c0,0,0,0,0.011,0c4.644-0.7,9.352-1.06,14.082-1.06
	C241.163,305.162,253.442,307.718,264.639,312.362z"/>
<path style="fill:#CAFFFF;" d="M352.62,512H12.042c-5.285,0-9.22-4.79-8.303-9.993C8.468,475.295,31.801,455,59.863,455
	c4.162,0,8.2,0.453,12.105,1.298c-0.01-0.051-0.031-0.113-0.041-0.165c-1.113-4.677-1.731-9.55-1.731-14.567
	c0-0.814,0.021-1.638,0.051-2.442c1.277-33.275,28.66-59.854,62.244-59.854c7.211,0,14.134,1.236,20.573,3.492
	c0-0.021,0.01-0.031,0.01-0.052c1.216-5.151,2.936-10.096,5.12-14.793c12.29-26.424,39.064-44.731,70.114-44.731
	c42.691,0,77.295,34.604,77.295,77.295c0,4.285-0.35,8.499-1.02,12.589c20.037,4.79,35.006,22.674,35.294,44.112
	c0.01,0.216,0.01,0.433,0.01,0.649c0,5.233-0.875,10.261-2.483,14.948c-0.124,0.361-0.247,0.711-0.381,1.071
	c11.651,5.007,20.552,15.195,23.797,27.66C362.201,506.828,358.111,512,352.62,512z"/>
<g>
	<path style="fill:#7DF6FF;" d="M339.887,457.833c0,5.233-0.875,10.261-2.483,14.948c-4.595-2.06-26.022-9.921-48.243,10.539
		c-1.483,1.37-3.369,2.05-5.233,2.05c-2.091,0-4.162-0.845-5.687-2.493c-2.895-3.142-2.689-8.025,0.453-10.92
		c25.167-23.189,50.211-18.554,61.182-14.773C339.887,457.4,339.887,457.617,339.887,457.833z"/>
	<path style="fill:#7DF6FF;" d="M187.173,416.306c-0.67,0.175-1.339,0.258-1.999,0.258c-3.42,0-6.542-2.277-7.458-5.738
		c-4.007-14.989-18.234-24.498-24.642-28.114c1.216-5.151,2.936-10.096,5.12-14.793c6.748,3.472,28.381,16.184,34.449,38.92
		C193.746,410.97,191.294,415.204,187.173,416.306z"/>
	<path style="fill:#7DF6FF;" d="M103.811,479.044c-1.061,0.505-2.194,0.752-3.297,0.752c-2.895,0-5.666-1.638-6.995-4.43
		c-5.512-11.662-17.616-17.565-21.593-19.233c-1.113-4.677-1.731-9.55-1.731-14.567c0-0.814,0.021-1.638,0.051-2.442
		c2.215,0.742,4.162,1.473,5.336,1.865c0.907,0.309,22.427,7.716,31.905,27.774C109.322,472.616,107.664,477.221,103.811,479.044z"
		/>
	<path style="fill:#7DF6FF;" d="M267.248,388.596c-4.268,0-7.726-3.459-7.726-7.726v-0.875c0-4.267,3.459-7.726,7.726-7.726
		s7.726,3.459,7.726,7.726v0.875C274.975,385.136,271.516,388.596,267.248,388.596z"/>
	<path style="fill:#7DF6FF;" d="M237.911,374.907c-4.267,0-7.726-3.459-7.726-7.726v-0.875c0-4.267,3.459-7.726,7.726-7.726
		s7.726,3.459,7.726,7.726v0.875C245.638,371.448,242.178,374.907,237.911,374.907z"/>
</g>
<g>
</g>
<g>
</g>
<g>
</g>
<g>
</g>
<g>
</g>
<g>
</g>
<g>
</g>
<g>
</g>
<g>
</g>
<g>
</g>
<g>
</g>
<g>
</g>
<g>
</g>
<g>
</g>
<g>
</g>
</svg>
