<?xml version="1.0" encoding="iso-8859-1"?>
<!-- Generator: Adobe Illustrator 19.0.0, SVG Export Plug-In . SVG Version: 6.00 Build 0)  -->
<svg version="1.1" id="Capa_1" xmlns="http://www.w3.org/2000/svg" xmlns:xlink="http://www.w3.org/1999/xlink" x="0px" y="0px"
	 viewBox="0 0 512 512" style="enable-background:new 0 0 512 512;" xml:space="preserve">
<path style="fill:#DB9E67;" d="M474.785,512H37.215c-6.201,0-10.139-6.647-7.165-12.087l137.819-252.235l15.325-28.051l35.47-64.911
	h74.674l37.357,68.382l15.324,28.041L481.95,499.913C484.923,505.353,480.986,512,474.785,512z"/>
<g>
	<path style="fill:#B4732D;" d="M105.206,451.545c-1.12,0-2.257-0.248-3.331-0.772c-3.778-1.843-5.347-6.4-3.503-10.178
		l77.979-159.851c1.842-3.778,6.399-5.347,10.177-3.504s5.347,6.4,3.504,10.178l-77.98,159.851
		C110.734,449.973,108.025,451.545,105.206,451.545z"/>
	<path style="fill:#B4732D;" d="M346.022,251.137v59.466c0,9.143-3.555,17.724-10.012,24.191
		c-6.487,6.456-15.068,10.012-24.191,10.012c-18.859,0-34.203-15.344-34.203-34.203v-0.123c-0.643,0.776-1.328,1.522-2.043,2.247
		c-6.089,6.078-14.169,9.429-22.781,9.429c-15.109,0-27.828-10.461-31.291-24.508c-0.501,0.572-1.022,1.134-1.563,1.686
		c-5.762,5.752-13.424,8.929-21.576,8.929c-16.815,0-30.494-13.679-30.494-30.494v-30.096l15.324-28.043l35.469-64.911h74.678
		l37.359,68.375L346.022,251.137z"/>
</g>
<path style="fill:#FE4100;" d="M330.698,223.094v87.509c0,5.22-2.115,9.94-5.527,13.352c-3.422,3.412-8.142,5.527-13.352,5.527
	c-10.42,0-18.879-8.449-18.879-18.879v-34.836c0-3.218-1.297-6.119-3.402-8.224c-2.105-2.104-5.016-3.412-8.224-3.412
	c-6.426,0-11.636,5.21-11.636,11.636v14.18c0,4.669-1.89,8.888-4.944,11.942s-7.284,4.945-11.942,4.945
	c-9.337,0-16.897-7.56-16.897-16.887v-51.835c0-3.085-1.246-5.874-3.269-7.897c-2.023-2.023-4.822-3.279-7.907-3.279
	c-6.17,0-11.176,5.006-11.176,11.176v39.658c0,4.188-1.696,7.979-4.444,10.727s-6.549,4.444-10.737,4.444
	c-8.377,0-15.171-6.793-15.171-15.171v-58.138l35.469-64.911h74.678L330.698,223.094z"/>
<g>
	<path style="fill:#B4732D;" d="M426.132,512h-17.354l-88.639-165.393c-1.989-3.704-0.599-8.322,3.106-10.311
		c3.714-1.979,8.322-0.589,10.311,3.116L426.132,512z"/>
	<path style="fill:#B4732D;" d="M301.085,471.999c-3.477,0-6.614-2.396-7.416-5.929l-26.661-117.541
		c-0.93-4.1,1.64-8.177,5.739-9.107c4.105-0.934,8.176,1.64,9.107,5.739l26.661,117.541c0.93,4.1-1.64,8.177-5.739,9.107
		C302.209,471.937,301.642,471.999,301.085,471.999z"/>
	<path style="fill:#B4732D;" d="M217.759,393.738c-0.566,0-1.14-0.063-1.715-0.195c-4.096-0.943-6.653-5.029-5.71-9.125
		l8.341-36.234c0.944-4.097,5.031-6.649,9.125-5.71c4.096,0.943,6.653,5.029,5.71,9.125l-8.341,36.234
		C224.359,391.354,221.225,393.738,217.759,393.738z"/>
	<path style="fill:#B4732D;" d="M186.918,368.63L136.033,512H120.12l52.448-148.455c1.411-3.968,5.764-6.038,9.722-4.628
		C186.258,360.318,188.329,364.672,186.918,368.63z"/>
</g>
<ellipse style="fill:#D10000;" cx="256" cy="154.72" rx="37.416" ry="9.447"/>
<g>
	<path style="fill:#FF7400;" d="M256,129.999c-4.204,0-7.611-3.408-7.611-7.612V7.611C248.388,3.408,251.796,0,256,0
		c4.204,0,7.612,3.408,7.612,7.611v114.776C263.611,126.591,260.204,129.999,256,129.999z"/>
	<path style="fill:#FF7400;" d="M103.429,188.974c-4.204,0-7.611-3.408-7.611-7.611v-67.26c0-38.506,31.327-69.834,69.833-69.834
		s69.834,31.328,69.834,69.834v12.694c0,4.204-3.407,7.612-7.611,7.612s-7.611-3.408-7.611-7.612v-12.694
		c0-30.112-24.499-54.611-54.611-54.611c-30.113,0-54.611,24.499-54.611,54.611v67.26
		C111.041,185.566,107.633,188.974,103.429,188.974z"/>
	<path style="fill:#FF7400;" d="M408.571,188.974c-4.204,0-7.611-3.408-7.611-7.611v-67.26c0-30.112-24.499-54.611-54.611-54.611
		c-30.113,0-54.612,24.499-54.612,54.611v12.694c0,4.204-3.407,7.612-7.611,7.612s-7.612-3.408-7.612-7.612v-12.694
		c0-38.506,31.327-69.834,69.833-69.834s69.835,31.328,69.835,69.834v67.26C416.182,185.566,412.775,188.974,408.571,188.974z"/>
</g>
<g>
	<circle style="fill:#FE4100;" cx="361.18" cy="182.5" r="12.315"/>
	<circle style="fill:#FE4100;" cx="145.06" cy="114.63" r="12.315"/>
	<circle style="fill:#FE4100;" cx="221.92" cy="27.352" r="12.315"/>
</g>
<g>
	<path style="fill:#D10000;" d="M379.55,134.981c-4.204,0-7.611-3.408-7.611-7.611v-0.842c0-4.204,3.407-7.611,7.611-7.611
		s7.612,3.408,7.612,7.611v0.842C387.162,131.573,383.754,134.981,379.55,134.981z"/>
	<path style="fill:#D10000;" d="M206.623,113.996c-4.204,0-7.611-3.408-7.611-7.611v-0.842c0-4.204,3.407-7.611,7.611-7.611
		s7.611,3.408,7.611,7.611v0.842C214.235,110.588,210.828,113.996,206.623,113.996z"/>
	<path style="fill:#D10000;" d="M86.076,237.247c-4.204,0-7.611-3.408-7.611-7.611v-0.842c0-4.204,3.407-7.611,7.611-7.611
		s7.611,3.408,7.611,7.611v0.842C93.688,233.839,90.28,237.247,86.076,237.247z"/>
	<path style="fill:#D10000;" d="M81.266,120.878c-4.204,0-7.611-3.408-7.611-7.611v-0.842c0-4.204,3.407-7.611,7.611-7.611
		s7.611,3.408,7.611,7.611v0.842C88.877,117.47,85.47,120.878,81.266,120.878z"/>
	<path style="fill:#D10000;" d="M279.025,23.07c-4.204,0-7.612-3.408-7.612-7.611v-0.842c0-4.204,3.407-7.611,7.612-7.611
		s7.611,3.408,7.611,7.611v0.842C286.636,19.663,283.229,23.07,279.025,23.07z"/>
	<path style="fill:#D10000;" d="M403.449,264.639c-4.204,0-7.612-3.408-7.612-7.612v-0.843c0-4.204,3.407-7.612,7.612-7.612
		s7.611,3.408,7.611,7.612v0.843C411.06,261.231,407.653,264.639,403.449,264.639z"/>
	<path style="fill:#D10000;" d="M271.116,214.388c-4.204,0-7.612-3.408-7.612-7.611V165.49c0-4.204,3.407-7.612,7.612-7.612
		s7.611,3.408,7.611,7.612v41.287C278.727,210.98,275.32,214.388,271.116,214.388z"/>
	<path style="fill:#D10000;" d="M234.139,202.431c-4.204,0-7.611-3.408-7.611-7.611v-8.687c0-4.204,3.407-7.611,7.611-7.611
		s7.611,3.408,7.611,7.611v8.687C241.75,199.023,238.343,202.431,234.139,202.431z"/>
	<path style="fill:#D10000;" d="M300.796,250.991c-4.204,0-7.611-3.408-7.611-7.611v-22.797c0-4.204,3.407-7.611,7.611-7.611
		s7.612,3.408,7.612,7.611v22.797C308.407,247.583,305,250.991,300.796,250.991z"/>
</g>
<g>
</g>
<g>
</g>
<g>
</g>
<g>
</g>
<g>
</g>
<g>
</g>
<g>
</g>
<g>
</g>
<g>
</g>
<g>
</g>
<g>
</g>
<g>
</g>
<g>
</g>
<g>
</g>
<g>
</g>
</svg>
