<svg height="512" viewBox="0 0 256 256" width="512" xmlns="http://www.w3.org/2000/svg"><g id="Layer_65"><g><g><g><g><path d="m55.222 17.85c4.5-.8 8-4.3 8.9-8.7 0-.2.4-.2.4 0 .9 4.4 4.4 7.9 8.9 8.7.2 0 .2.3 0 .4-4.5.8-8 4.3-8.9 8.7 0 .2-.4.2-.4 0-.9-4.4-4.4-7.9-8.9-8.7-.2-.1-.2-.4 0-.4z" fill="#f5c84c"/></g></g></g><g><g><g><circle cx="93.472" cy="3.4" fill="#87d147" r="3.4"/></g></g></g><g><g><g><path d="m59.151 125.568c2.831-.503 5.033-2.705 5.6-5.474 0-.126.252-.126.252 0 .566 2.768 2.768 4.97 5.6 5.474.126 0 .126.189 0 .252-2.831.503-5.033 2.705-5.6 5.474 0 .126-.252.126-.252 0-.566-2.768-2.768-4.97-5.6-5.474-.126-.063-.126-.252 0-.252z" fill="#70d6f9"/></g></g></g><g><g><g><circle cx="206.472" cy="220.6" fill="#f5c84c" r="3.4"/></g></g></g><g><g><g><path d="m217.372 184.5h-2.3v-2.3c0-1.7-1.4-3.2-3.2-3.2s-3.2 1.4-3.2 3.2v2.3h-2.3c-1.7 0-3.2 1.4-3.2 3.2s1.4 3.2 3.2 3.2h2.3v2.3c0 1.7 1.4 3.2 3.2 3.2s3.2-1.4 3.2-3.2v-2.3h2.3c1.7 0 3.2-1.4 3.2-3.2s-1.4-3.2-3.2-3.2z" fill="#fc657e"/></g></g></g><g><path d="m191.071 178.239c-.357-6.417-4.846-11.856-11.078-13.425l-21.363-5.377c-3.731-.939-7.378-2.181-10.911-3.695-.054.645-.315 1.275-.808 1.769l-14.983 14.983c-1.108 1.108-2.905 1.108-4.013 0l-6.705-6.705c-.626-.626-.886-1.471-.804-2.289h-7.691c.082.817-.178 1.663-.804 2.289l-6.705 6.705c-1.108 1.108-2.905 1.108-4.013 0l-14.983-14.983c-.491-.491-.751-1.117-.807-1.758-3.525 1.509-7.166 2.742-10.887 3.679l-21.388 5.383c-6.233 1.569-10.721 7.008-11.078 13.425l-4.115 70.951c-.13 2.34 1.732 4.31 4.076 4.31h149.098c2.344 0 4.207-1.969 4.076-4.31z" fill="#70d6f9"/></g><g><path d="m111.91 161.776-14.983-14.983c-1.108-1.108-2.904-1.108-4.013 0l-6.705 6.705c-1.108 1.108-1.108 2.904 0 4.013l14.983 14.983c1.108 1.108 2.905 1.108 4.013 0l6.705-6.705c1.108-1.108 1.108-2.905 0-4.013z" fill="#9be5f9"/></g><g><path d="m121.21 161.776 14.983-14.983c1.108-1.108 2.904-1.108 4.013 0l6.705 6.705c1.108 1.108 1.108 2.904 0 4.013l-14.983 14.983c-1.108 1.108-2.905 1.108-4.013 0l-6.705-6.705c-1.108-1.108-1.108-2.905 0-4.013z" fill="#9be5f9"/></g><g><path d="m122.133 56.772c-13.593 17.094-33.644 14.681-40.386 13.27-1.225-.256-2.401.667-2.402 1.919v.025 29.936c0 20.468 16.747 37.215 37.215 37.215 20.468 0 37.215-16.747 37.215-37.215v-33.15c0-.194-.002-.388-.006-.582-.021-1.055-.866-1.925-1.921-1.956-15.46-.453-23.606-6.581-26.736-9.649-.855-.838-2.234-.749-2.979.187z" fill="#f98fa6"/></g><g><path d="m162.023 47.969v-6.511c0-3.319-2.691-6.01-6.01-6.01h-6.511v-5.368c-1.242-.228-2.515-.365-3.82-.365-3.966 0-7.673.121-10.859 2.031-3.722-6.211-10.502-10.405-18.23-10.405h-10.916c-21.127 0-38.413 17.286-38.413 38.414v17.212c2.658-2.127 6.025-3.407 9.694-3.407.813 0 1.609.069 2.388.189v-1.763c0-.008 0-.017 0-.025.001-1.251 1.177-2.175 2.402-1.919 6.742 1.411 26.794 3.823 40.386-13.27.745-.937 2.124-1.025 2.978-.188 3.13 3.068 11.276 9.196 26.736 9.649 1.055.031 1.9.901 1.921 1.956.004.194.006.387.006.582v4.978c.779-.121 1.575-.189 2.388-.189 4.188 0 7.982 1.665 10.777 4.36v-27.947c0-.676-.04-1.344-.102-2.004z" fill="#754e34"/></g><g><path d="m156.163 73.561c-.813 0-1.609.069-2.388.189v28.173c0 .839-.038 1.67-.094 2.496.81.13 1.635.217 2.482.217 8.581 0 15.537-6.956 15.537-15.537s-6.956-15.538-15.537-15.538z" fill="#fc657e"/></g><g><path d="m79.345 101.923c0-3.856 0-20.507 0-28.173-.779-.121-1.575-.189-2.388-.189-8.581 0-15.538 6.957-15.538 15.538s6.956 15.537 15.538 15.537c.847 0 1.672-.086 2.482-.217v-.001c-.056-.825-.094-1.656-.094-2.495z" fill="#fc657e"/></g><g><path d="m168.375 253.5h22.734c2.344 0 4.207-1.969 4.076-4.31l-2.302-39.69h-24.508z" fill="#f9d0b4"/></g><g><path d="m65.286 209.5h-25.05l-2.302 39.69c-.13 2.34 1.732 4.31 4.076 4.31h23.275v-44z" fill="#f9d0b4"/></g><g><path d="m112.714 163.5h7.691c.063-.629.322-1.242.804-1.724l14.292-14.292c-1.144-1.939-1.797-4.171-1.797-6.512v-6.057c-5.14 2.69-10.97 4.223-17.145 4.223-6.174 0-12.005-1.532-17.145-4.223v6.057c0 2.342-.639 4.585-1.784 6.525l14.28 14.28c.482.481.742 1.094.804 1.723z" fill="#f9d0b4"/></g><g><path d="m168.375 255c-1.381 0-2.5-1.119-2.5-2.5v-60.706c0-1.381 1.119-2.5 2.5-2.5s2.5 1.119 2.5 2.5v60.706c0 1.381-1.119 2.5-2.5 2.5z"/></g><g><path d="m65.286 255c-1.381 0-2.5-1.119-2.5-2.5v-60.706c0-1.381 1.119-2.5 2.5-2.5s2.5 1.119 2.5 2.5v60.706c0 1.381-1.119 2.5-2.5 2.5z"/></g><g><path d="m191.109 256h-149.098c-1.801 0-3.544-.75-4.781-2.059-1.238-1.309-1.891-3.091-1.791-4.89l4.115-70.957c.421-7.546 5.631-13.859 12.964-15.705l21.388-5.384c3.482-.876 6.939-2.037 10.274-3.45 1.271-.54 2.739.054 3.277 1.326.539 1.271-.055 2.739-1.326 3.277-3.571 1.514-7.274 2.757-11.005 3.696l-21.388 5.384c-5.2 1.309-8.895 5.785-9.192 11.139l-4.115 70.957c-.024.433.129.851.431 1.17s.709.496 1.149.496h149.099c.439 0 .848-.176 1.149-.495s.455-.737.431-1.176l-4.114-70.945c-.298-5.359-3.992-9.836-9.193-11.145l-21.362-5.378c-3.69-.929-7.374-2.166-10.948-3.678-1.271-.538-1.867-2.005-1.329-3.276.538-1.272 2.009-1.867 3.276-1.329 3.34 1.412 6.778 2.567 10.222 3.434l21.362 5.378c7.334 1.846 12.544 8.159 12.965 15.711l4.114 70.945c.1 1.805-.553 3.587-1.791 4.896-1.239 1.308-2.982 2.058-4.783 2.058z"/></g><g><path d="m103.199 175.822c-1.366 0-2.733-.52-3.773-1.561l-14.983-14.983c-2.081-2.081-2.081-5.467 0-7.548l6.705-6.705c2.08-2.08 5.467-2.081 7.547-.001l14.983 14.984c2.081 2.081 2.081 5.467 0 7.548l-6.705 6.705c-1.04 1.042-2.408 1.561-3.774 1.561zm-8.278-27.36c-.086 0-.173.033-.238.099l-6.705 6.705c-.132.132-.132.346 0 .478l14.983 14.983c.162.162.314.162.477 0l6.705-6.705c.132-.132.132-.346 0-.478l-14.983-14.983c-.065-.066-.152-.099-.239-.099z"/></g><g><path d="m129.921 175.822c-1.367 0-2.733-.521-3.773-1.561l-6.705-6.705c-1.009-1.008-1.563-2.349-1.563-3.774s.556-2.767 1.564-3.774l14.982-14.982c2.08-2.082 5.467-2.082 7.547 0l6.705 6.705c2.081 2.081 2.081 5.467 0 7.548l-14.982 14.983c-1.042 1.04-2.409 1.56-3.775 1.56zm8.278-27.359c-.063 0-.157.017-.238.098l-14.983 14.983s0 .001-.001.001c-.064.065-.098.146-.098.237 0 .063.017.157.099.239l6.705 6.705c.132.132.347.132.479-.001l14.981-14.982c.132-.132.132-.346 0-.478l-6.705-6.705c-.082-.081-.175-.097-.239-.097zm-16.989 13.313h.01z"/></g><g><path d="m116.561 141.638c-21.899 0-39.716-17.816-39.716-39.715v-29.936c.002-1.373.604-2.63 1.652-3.48 1.058-.857 2.427-1.189 3.763-.911 7.236 1.516 25.416 3.341 37.916-12.379 0-.001.001-.001.001-.001.796-1.001 1.982-1.619 3.254-1.698 1.268-.08 2.52.39 3.431 1.282 2.594 2.541 10.227 8.5 25.06 8.936 2.389.068 4.299 2.003 4.348 4.404.005.21.007.422.007.633v33.15c-.002 21.898-17.818 39.715-39.716 39.715zm-34.716-69.026v29.311c0 19.142 15.573 34.715 34.715 34.715 19.143 0 34.716-15.573 34.716-34.715v-33.15c0-.019 0-.037 0-.056-15.153-.564-23.626-6.309-27.522-9.971-14.19 17.4-34.921 15.219-41.909 13.866zm42.245-14.284c-.001.001-.001.002-.002.003 0-.001.001-.001.002-.003z"/></g><g><path d="m156.163 107.136c-.521 0-1.064-.027-1.613-.083-1.374-.137-2.376-1.362-2.238-2.736s1.345-2.378 2.736-2.238c.39.039.754.058 1.115.058 7.188 0 13.037-5.849 13.037-13.037 0-7.189-5.849-13.038-13.037-13.038-.397 0-.79.02-1.179.057-1.362.122-2.595-.881-2.724-2.255s.88-2.594 2.255-2.724c10.653-.993 19.685 7.472 19.685 17.96 0 9.944-8.092 18.036-18.037 18.036z"/></g><g><path d="m76.957 107.136c-9.945 0-18.037-8.092-18.037-18.037 0-9.946 8.092-18.038 18.037-18.038.551 0 1.12.027 1.693.083 1.374.131 2.382 1.353 2.25 2.727-.131 1.375-1.36 2.386-2.727 2.25-.415-.039-.824-.06-1.217-.06-7.188 0-13.037 5.849-13.037 13.038 0 7.188 5.849 13.037 13.037 13.037.433 0 .876-.027 1.354-.083 1.372-.161 2.613.818 2.774 2.19.162 1.371-.819 2.613-2.19 2.774-.673.081-1.307.119-1.937.119z"/></g><g><path d="m191.958 212h-22.708c-1.381 0-2.5-1.119-2.5-2.5s1.119-2.5 2.5-2.5h22.708c1.381 0 2.5 1.119 2.5 2.5s-1.119 2.5-2.5 2.5z"/></g><g><path d="m64.542 212h-23.5c-1.381 0-2.5-1.119-2.5-2.5s1.119-2.5 2.5-2.5h23.5c1.381 0 2.5 1.119 2.5 2.5s-1.119 2.5-2.5 2.5z"/></g><g><path d="m135.187 149.414c-.898 0-1.767-.486-2.215-1.337-1.155-2.197-1.767-4.654-1.767-7.105v-5.409c0-1.381 1.119-2.5 2.5-2.5s2.5 1.119 2.5 2.5v5.409c0 1.643.412 3.295 1.192 4.777.643 1.222.173 2.733-1.049 3.377-.37.195-.769.288-1.161.288z"/></g><g><path d="m119.792 166h-6.417c-1.381 0-2.5-1.119-2.5-2.5s1.119-2.5 2.5-2.5h6.417c1.381 0 2.5 1.119 2.5 2.5s-1.119 2.5-2.5 2.5z"/></g><g><path d="m97.843 149.62c-.405 0-.815-.098-1.196-.306-1.212-.661-1.657-2.181-.996-3.393.827-1.516 1.265-3.228 1.265-4.95v-5.347c0-1.381 1.119-2.5 2.5-2.5s2.5 1.119 2.5 2.5v5.347c0 2.558-.648 5.098-1.876 7.347-.455.831-1.312 1.302-2.197 1.302z"/></g><g><path d="m127.191 87.067c-.954 0-1.866-.55-2.282-1.478-.564-1.26-.002-2.739 1.258-3.305l12.2-5.473c1.258-.561 2.739-.003 3.305 1.258.564 1.26.002 2.739-1.258 3.305l-12.2 5.473c-.332.149-.68.22-1.023.22z"/></g><g><path d="m105.929 87.067c-.343 0-.689-.071-1.022-.22l-12.2-5.473c-1.26-.565-1.822-2.045-1.258-3.305.565-1.26 2.043-1.82 3.305-1.258l12.2 5.473c1.26.565 1.822 2.045 1.258 3.305-.417.928-1.329 1.478-2.283 1.478z"/></g><g><path d="m128.19 118.245c-.714 0-1.423-.304-1.917-.894-2.146-2.562-5.777-4.09-9.713-4.09-3.937 0-7.567 1.528-9.714 4.09-.887 1.06-2.463 1.196-3.522.31-1.058-.887-1.196-2.464-.31-3.522 3.085-3.68 8.149-5.877 13.546-5.877s10.46 2.197 13.545 5.877c.887 1.059.748 2.636-.31 3.522-.468.393-1.037.584-1.605.584z"/></g><g><circle cx="131.671" cy="94.5" r="4.5"/></g><g><circle cx="101.45" cy="94.5" r="4.5"/></g><g><path d="m166.939 80.188c-1.381 0-2.5-1.119-2.5-2.5v-27.715c0-.547-.029-1.126-.091-1.769-.13-1.374.879-2.594 2.254-2.725 1.372-.12 2.594.879 2.725 2.254.075.801.112 1.533.112 2.239v27.716c0 1.381-1.119 2.5-2.5 2.5z"/></g><g><path d="m67.263 79.188c-1.381 0-2.5-1.119-2.5-2.5v-16.932c0-22.561 18.354-40.914 40.913-40.914h10.916c7.508 0 14.633 3.667 19.096 9.702 3.079-1.212 6.383-1.329 9.994-1.329 1.388 0 2.786.133 4.272.406 1.358.25 2.257 1.554 2.007 2.911-.25 1.358-1.56 2.255-2.911 2.007-1.186-.218-2.287-.324-3.368-.324-3.841 0-6.984.123-9.574 1.676-.568.341-1.251.442-1.893.28-.644-.161-1.196-.571-1.537-1.14-3.396-5.668-9.561-9.189-16.086-9.189h-10.916c-19.803 0-35.913 16.111-35.913 35.914v16.932c0 1.38-1.119 2.5-2.5 2.5z"/></g><g><path d="m184.439 25.552h-6.511c-3.319 0-6.01-2.691-6.01-6.01v-6.511h-9.895v6.511c0 3.319-2.691 6.01-6.01 6.01h-6.511v9.895h6.511c3.319 0 6.01 2.691 6.01 6.01v6.511h9.895v-6.511c0-3.319 2.691-6.01 6.01-6.01h6.511z" fill="#f5c84c"/></g><g><path d="m184.439 28.053h-6.511c-4.692 0-8.511-3.818-8.511-8.511v-6.511c0-1.381 1.119-2.5 2.5-2.5s2.5 1.119 2.5 2.5v6.511c0 1.936 1.575 3.511 3.511 3.511h6.511c1.381 0 2.5 1.119 2.5 2.5s-1.119 2.5-2.5 2.5z"/></g><g><path d="m171.918 50.469c-1.381 0-2.5-1.119-2.5-2.5v-6.511c0-4.692 3.818-8.511 8.511-8.511h6.511c1.381 0 2.5 1.119 2.5 2.5s-1.119 2.5-2.5 2.5h-6.511c-1.936 0-3.511 1.575-3.511 3.511v6.511c0 1.381-1.119 2.5-2.5 2.5z"/></g><g><path d="m162.023 50.469c-1.381 0-2.5-1.119-2.5-2.5v-6.511c0-1.936-1.575-3.511-3.511-3.511h-6.511c-1.381 0-2.5-1.119-2.5-2.5s1.119-2.5 2.5-2.5h6.511c4.692 0 8.511 3.818 8.511 8.511v6.511c0 1.381-1.119 2.5-2.5 2.5z"/></g><g><path d="m156.013 28.053h-6.511c-1.381 0-2.5-1.119-2.5-2.5s1.119-2.5 2.5-2.5h6.511c1.936 0 3.511-1.575 3.511-3.511v-6.511c0-1.381 1.119-2.5 2.5-2.5s2.5 1.119 2.5 2.5v6.511c-.001 4.692-3.819 8.511-8.511 8.511z"/></g></g></g></svg>