<svg id="Capa_1" enable-background="new 0 0 512 512" height="512" viewBox="0 0 512 512" width="512" xmlns="http://www.w3.org/2000/svg"><g><g><path clip-rule="evenodd" d="m256 13.5c-99.221 1.615-198.442 76.268-198.442 223.584h396.884c0-147.316-99.221-221.969-198.442-223.584z" fill="#6d80aa" fill-rule="evenodd"/></g><g><path clip-rule="evenodd" d="m454.442 237.084-27.409 39.59 23.658 51.614c25.216.317 53.809-25.634 53.809-51.124v-19.924c0-11.101-9.059-20.155-20.167-20.155h-29.891z" fill="#ffbc85" fill-rule="evenodd"/></g><g><path clip-rule="evenodd" d="m7.5 257.24v19.925c0 25.49 28.592 51.441 53.808 51.124l30.035-45.617-33.785-45.588h-29.89c-11.109 0-20.168 9.054-20.168 20.156z" fill="#ffbc85" fill-rule="evenodd"/></g><g><path clip-rule="evenodd" d="m248.181 13.759c84.305 16.493 159.781 87.196 162.897 211.878 10.733 5.738 24.524 10.121 43.364 11.447 0-147.316-99.221-221.969-198.442-223.584-2.597.029-5.222.115-7.819.259z" fill="#49679b" fill-rule="evenodd"/></g><g><path clip-rule="evenodd" d="m181.332 184.461c-55.424-14.273-43.451 47.029-123.774 52.623v60.639c0 9.919 1.298 20.155 3.751 30.565 15.147 64.301 74.553 134.11 144.98 160.235 17.975 6.661 33.843 9.977 49.712 9.977s31.737-3.316 49.712-9.977c70.427-26.124 129.833-95.933 144.98-160.235 2.452-10.409 3.751-20.646 3.751-30.565v-60.639c-80.323-5.594-68.35-66.897-123.774-52.623-42.874 11.015-58.742 16.551-74.668 16.551s-31.797-5.536-74.67-16.551z" fill="#ffe5c1" fill-rule="evenodd"/></g><g><path clip-rule="evenodd" d="m328.1 360.151h-142.816c-5.54 0-10.098 4.527-10.098 10.063 0 7.324.981 14.417 2.799 21.194h157.415c1.818-6.776 2.77-13.869 2.77-21.194 0-5.536-4.53-10.063-10.07-10.063z" fill="#f8f2f0" fill-rule="evenodd"/></g><g><path clip-rule="evenodd" d="m335.4 391.408h-157.415c9.319 34.688 41.027 60.265 78.708 60.265s69.388-25.577 78.707-60.265z" fill="#fd4755" fill-rule="evenodd"/></g><g><path clip-rule="evenodd" d="m153.028 264.477-30.9 14.821c-3.433 1.384-3.433 2.105 0 3.489l30.9 14.821 14.83 30.882c1.385 3.431 2.106 3.431 3.491 0l14.83-30.882 30.9-14.821c3.433-1.384 3.433-2.105 0-3.489l-30.9-14.821-14.83-30.882c-1.385-3.431-2.106-3.431-3.491 0z" fill="#fdb440" fill-rule="evenodd"/></g><g><path clip-rule="evenodd" d="m327.206 264.477-30.9 14.821c-3.433 1.384-3.433 2.105 0 3.489l30.9 14.821 14.83 30.882c1.385 3.431 2.106 3.431 3.491 0l14.83-30.882 30.9-14.821c3.433-1.384 3.433-2.105 0-3.489l-30.9-14.821-14.83-30.882c-1.385-3.431-2.106-3.431-3.491 0z" fill="#fdb440" fill-rule="evenodd"/></g><g><path clip-rule="evenodd" d="m292.151 360.151c5.511.058 10.012 4.556 10.012 10.063 0 7.324-.981 14.417-2.799 21.194h36.036c1.818-6.776 2.77-13.869 2.77-21.194 0-5.536-4.53-10.063-10.069-10.063z" fill="#eee1dc" fill-rule="evenodd"/></g><g><path clip-rule="evenodd" d="m299.364 391.408c-7.79 29.008-31.218 51.614-60.675 58.246 5.77 1.326 11.8 2.018 18.003 2.018 37.68 0 69.388-25.576 78.708-60.265h-36.036z" fill="#e41e2b" fill-rule="evenodd"/></g><g><path clip-rule="evenodd" d="m411.165 233.624v60.668c0 9.89-1.298 20.155-3.751 30.536-15.147 64.33-74.553 134.139-144.98 160.235-13.387 4.96-25.591 8.074-37.478 9.342 10.704 2.739 20.889 4.095 31.044 4.095 15.868 0 31.737-3.316 49.712-9.977 70.427-26.124 129.833-95.933 144.98-160.235 2.452-10.409 3.751-20.646 3.751-30.565v-60.639c-18.84-1.326-32.631-5.709-43.364-11.447.057 2.624.086 5.306.086 7.987z" fill="#fed1a3" fill-rule="evenodd"/></g><g><path clip-rule="evenodd" d="m168.002 233.192c4.587 13.149 7.184 28.229 7.184 44.261 0 17.676-3.145 34.227-8.656 48.269l1.327 2.768c1.385 3.431 2.106 3.431 3.491 0l14.83-30.882 30.9-14.821c3.433-1.384 3.433-2.105 0-3.489l-30.9-14.821-14.83-30.882c-1.326-3.287-2.047-3.402-3.346-.403z" fill="#fe9900" fill-rule="evenodd"/></g><g><path clip-rule="evenodd" d="m342.209 233.192c4.559 13.149 7.184 28.229 7.184 44.261 0 17.676-3.174 34.227-8.684 48.269l1.327 2.768c1.385 3.431 2.106 3.431 3.491 0l14.83-30.882 30.9-14.821c3.433-1.384 3.433-2.105 0-3.489l-30.9-14.821-14.83-30.882c-1.327-3.287-2.049-3.402-3.318-.403z" fill="#fe9900" fill-rule="evenodd"/></g><g><path d="m167.686 370.214c0 8.068 1.087 15.887 3.11 23.323.011.038.019.078.031.115 10.318 37.716 44.901 65.519 85.865 65.519 40.842 0 75.341-27.656 85.756-65.22.14-.386.25-.786.325-1.198 1.888-7.201 2.897-14.755 2.897-22.54 0-9.685-7.882-17.563-17.569-17.563h-142.817c-9.703.001-17.598 7.88-17.598 17.564zm89.006 73.958c-30.631 0-56.973-18.694-68.208-45.265h136.389c-11.229 26.571-37.562 45.265-68.181 45.265zm73.978-73.958c0 4.68-.457 9.253-1.292 13.693h-145.399c-.836-4.441-1.292-9.014-1.292-13.693 0-1.39 1.19-2.563 2.598-2.563h142.816c1.392 0 2.569 1.174 2.569 2.563z"/><path d="m484.333 229.584h-22.484c-1.53-66.987-23.613-123.651-64.112-164.229-37.325-37.396-87.618-58.475-141.615-59.354-.081-.001-.163-.001-.244 0-53.997.879-104.291 21.958-141.615 59.355-40.5 40.577-62.582 97.241-64.112 164.229h-22.484c-15.255-.001-27.667 12.406-27.667 27.655v19.925c0 13.459 6.703 27.797 18.39 39.338 10.733 10.599 24.204 17.422 37.04 18.958 8.8 32.365 28.061 66.218 55.118 95.653 1.479 1.609 3.498 2.424 5.523 2.424 1.814 0 3.633-.654 5.074-1.978 3.049-2.803 3.249-7.548.446-10.598-35.399-38.511-56.533-84.582-56.533-123.239v-53.807c38.772-4.453 55.934-21.936 69.865-36.144 13.433-13.701 21.54-21.969 44.542-16.048 9.083 2.335 17.521 4.554 25.797 6.783 3.997 1.081 8.115-1.292 9.192-5.291s-1.292-8.115-5.291-9.192c-8.331-2.245-16.824-4.478-25.96-6.827-31.387-8.08-44.794 5.594-58.991 20.074-12.625 12.877-26.808 27.345-59.046 31.528 3.66-140.568 100.598-206.274 190.834-207.798 90.236 1.524 187.174 67.23 190.835 207.798-32.238-4.183-46.421-18.65-59.046-31.527-14.196-14.48-27.606-28.154-58.987-20.075-10.145 2.606-18.7 4.885-26.249 6.896-23.547 6.271-35.365 9.419-46.553 9.419-4.763 0-9.745-.562-16.154-1.82-4.066-.799-8.006 1.849-8.805 5.914-.798 4.064 1.849 8.007 5.914 8.805 7.399 1.454 13.273 2.102 19.045 2.102 13.151 0 25.604-3.317 50.413-9.925 7.519-2.002 16.041-4.272 26.125-6.863 23.002-5.921 31.107 2.348 44.54 16.049 13.931 14.208 31.092 31.691 69.864 36.143v53.807c0 32.678-15.354 71.363-42.124 106.136-27.736 36.028-63.859 63.598-101.713 77.631-17.506 6.487-32.474 9.509-47.105 9.509-14.63 0-29.598-3.022-47.106-9.51-21.481-7.956-42.348-20.243-62.019-36.519-3.192-2.642-7.919-2.194-10.56.997s-2.194 7.919.997 10.56c20.975 17.354 43.305 30.485 66.371 39.028 19.227 7.125 35.852 10.444 52.317 10.444 16.466 0 33.09-3.319 52.319-10.445 40.461-15 78.952-44.315 108.385-82.545 19.121-24.838 32.81-51.742 39.84-77.547 12.844-1.53 26.327-8.355 37.066-18.961 11.687-11.541 18.39-25.879 18.39-39.338v-19.924c0-15.249-12.411-27.656-27.667-27.656zm-455.404 76.245c-8.852-8.741-13.929-19.189-13.929-28.665v-19.924c0-6.978 5.683-12.655 12.667-12.655h22.39v53.139c0 7.08.647 14.374 1.879 21.8-7.974-2.162-16.227-7-23.007-13.695zm468.071-28.665c0 9.476-5.077 19.923-13.929 28.665-6.781 6.695-15.04 11.52-23.014 13.684 1.24-7.443 1.885-14.736 1.885-21.79v-53.139h22.391c6.984 0 12.667 5.677 12.667 12.655z"/><path d="m220.111 272.434-28.312-13.58-13.587-28.293c-.811-1.99-3.066-7.04-8.608-7.04s-7.797 5.05-8.608 7.04l-13.587 28.293-28.312 13.58c-1.99.811-7.043 3.065-7.043 8.608s5.053 7.798 7.043 8.608l28.312 13.58 13.587 28.293c.811 1.99 3.066 7.04 8.608 7.04s7.797-5.05 8.608-7.04l13.587-28.293 28.312-13.58c1.99-.811 7.043-3.065 7.043-8.608s-5.053-7.797-7.043-8.608zm-37.176 18.412c-1.538.738-2.779 1.978-3.517 3.516l-9.814 20.438-9.814-20.438c-.738-1.538-1.979-2.778-3.517-3.516l-20.439-9.803 20.439-9.803c1.538-.738 2.779-1.978 3.517-3.516l9.814-20.438 9.814 20.438c.738 1.538 1.979 2.778 3.517 3.516l20.439 9.803z"/><path d="m321.586 303.231 13.587 28.294c.812 1.989 3.066 7.039 8.607 7.039h.001c5.541 0 7.797-5.05 8.608-7.038l13.587-28.295 28.312-13.58c1.991-.811 7.044-3.065 7.044-8.608s-5.053-7.797-7.044-8.608l-28.312-13.58-13.586-28.295c-.812-1.989-3.067-7.039-8.609-7.038-5.541 0-7.796 5.05-8.607 7.039l-13.587 28.294-28.312 13.58c-1.991.811-7.044 3.065-7.044 8.608s5.053 7.797 7.044 8.608zm8.863-31.991c1.538-.738 2.779-1.978 3.518-3.516l9.814-20.438 9.814 20.438c.738 1.538 1.979 2.778 3.518 3.516l20.438 9.803-20.438 9.803c-1.538.738-2.779 1.978-3.518 3.516l-9.814 20.438-9.814-20.438c-.738-1.538-1.979-2.778-3.518-3.516l-20.438-9.803z"/></g></g></svg>