<svg id="Capa_1" enable-background="new 0 0 512.001 512.001" height="512" viewBox="0 0 512.001 512.001" width="512" xmlns="http://www.w3.org/2000/svg"><g><g><g><g><path d="m126.097 102.84 22.413-23.029c3.88-3.987 10.629-2.178 11.996 3.214l7.896 31.15 30.925-8.737c5.354-1.513 10.295 3.428 8.782 8.782l-8.737 30.925 31.15 7.896c5.393 1.367 7.201 8.116 3.214 11.996l-23.029 22.413 23.029 22.413c3.987 3.88 2.178 10.629-3.214 11.996l-31.15 7.896 8.737 30.925c1.513 5.354-3.428 10.295-8.782 8.782l-30.925-8.737-7.896 31.15c-1.367 5.393-8.116 7.201-11.996 3.214l-22.413-23.029-22.413 23.029c-3.88 3.987-10.629 2.178-11.996-3.214l-7.896-31.15-30.925 8.737c-5.354 1.513-10.295-3.428-8.782-8.782l8.737-30.925-31.15-7.896c-5.393-1.367-7.201-8.116-3.214-11.996l23.029-22.413-23.029-22.413c-3.987-3.88-2.178-10.629 3.214-11.996l31.15-7.896-8.737-30.925c-1.513-5.354 3.428-10.295 8.782-8.782l30.925 8.737 7.896-31.15c1.367-5.393 8.116-7.201 11.996-3.214z" fill="#fb4a59"/><path d="m233.737 209.865c3.985 3.878 2.177 10.631-3.216 11.997l-31.144 7.898 8.731 30.924c1.516 5.351-3.423 10.296-8.781 8.78l-30.924-8.738-7.898 31.152c-1.366 5.394-8.112 7.201-11.997 3.216l-4.625-4.753 10.936-48.051c.455-1.985 2.476-3.188 4.433-2.633l20.429 5.771c2.682.761 5.152-1.715 4.397-4.39l-5.799-20.514c-.548-1.928.605-3.928 2.547-4.419l20.67-5.237c2.697-.683 3.6-4.056 1.608-5.998l-15.284-14.871c-1.43-1.395-1.43-3.7 0-5.095l15.284-14.871c1.992-1.943 1.089-5.315-1.608-5.998l-20.67-5.237c-1.935-.491-3.095-2.49-2.547-4.419l5.799-20.514c.754-2.675-1.715-5.144-4.397-4.39l-20.507 5.792c-1.928.548-3.928-.612-4.419-2.554l-11.869-47.133 5.621-5.771c3.885-3.985 10.631-2.177 11.997 3.216l7.898 31.152 30.924-8.738c5.358-1.509 10.296 3.43 8.781 8.78l-8.731 30.924 31.144 7.898c5.393 1.366 7.201 8.119 3.216 11.997l-23.026 22.414z" fill="#f82f40"/></g><g><g><path d="m169.246 504.5h326.45l-23.89-100.7c-8.65-36.47-38.55-64.06-75.6-69.76l-8.46-1.3h-155.73l-8.46 1.3c-21.397 3.292-40.399 13.895-54.31 29.284z" fill="#64b9fc"/><path d="m280.679 332.74v52.26c-14.32-8.4-36.21.31-48.14 6.35-3.67 1.86-7.86-1.25-7.18-5.31 4.62-27.86 16.36-44.55 24.75-53.3z" fill="#31a7fb"/><path d="m387.171 391.35c-11.93-6.04-33.82-14.75-48.14-6.35v-52.26h30.58c8.38 8.75 20.12 25.44 24.75 53.3.67 4.06-3.52 7.17-7.19 5.31z" fill="#31a7fb"/><path d="m280.681 332.74h58.351v171.76h-58.351z" fill="#f8f3f1"/><path d="m495.692 504.5h-32.2l-23.88-100.7c-8.66-36.47-38.56-64.06-75.61-69.76l-8.45-1.3h32.2l8.45 1.3c37.05 5.7 66.95 33.29 75.61 69.76z" fill="#31a7fb"/><g><g><path d="m352.636 319.626c-10.983-6.069-17.709-17.72-17.709-30.268v-21.742h-50.087v21.738c0 12.73-6.979 24.403-18.147 30.513v2.071c0 23.732 19.239 42.971 42.971 42.971 23.732 0 42.971-19.239 42.971-42.971v-2.312z" fill="#fc9085"/><g><path d="m342.032 310.47c-9.99 2.91-20.74 4.41-32.15 4.41-11.43 0-22.2-1.5-32.2-4.43 4.56-5.96 7.16-13.33 7.16-21.1v-21.73h50.08v21.74c0 7.75 2.57 15.15 7.11 21.11z" fill="#fc7c6a"/></g></g></g></g><g><g><path d="m202.574 84.239c-7.858 20.158 10.383 105.106 8.207 97.237h198.2c-1.93 7.506 19.641-86.968 3.003-124.658-15.087-34.177-87.013-35.527-110.055-29.451-32.73 8.631-87.059 25.333-99.355 56.872z" fill="#6c3328"/><g fill="#873f30"><path d="m210.786 181.472h.118c.108.669.078.708-.118 0z"/><path d="m408.98 181.472c-.138.521-.157.501-.089 0z"/><path d="m184.902 181.472h.118c.108.669.078.708-.118 0z"/><path d="m383.008 181.472h.088c-.137.521-.157.502-.088 0z"/></g></g><g><g fill="#fc9085"><ellipse cx="407.634" cy="168.322" rx="32.301" ry="27.526" transform="matrix(.338 -.941 .941 .338 111.621 495.238)"/><path d="m210.787 181.48h.12c.1.67.07.7-.12 0z"/><ellipse cx="212.13" cy="168.322" rx="27.526" ry="32.301" transform="matrix(.941 -.338 .338 .941 -44.36 81.463)"/></g><path d="m259.156 96.359c-19.602 0-35.493 15.891-35.493 35.493v55.032s0 102.998 86.219 102.998 86.219-102.998 86.219-102.998v-55.032c0-19.602-15.891-35.493-35.493-35.493z" fill="#fda79b"/><path d="m378.56 101.23c-5.28 20.82-21.52 38.97-61.48 38.97-38.12 0-61.63-13.78-91.1-20.98 5.09-13.37 18.02-22.86 33.18-22.86h101.45c6.551 0 12.69 1.77 17.95 4.87z" fill="#fc9085"/></g><path d="m316.058 7.5c66.026 0 64.668 32.038 64.668 54.9 0 27.214-12.016 57.508-63.645 57.508-45.176 0-69.839-19.35-108.224-24.187-9.224-1.162-14.501-11.121-10.473-19.5 12.293-25.57 43.96-68.721 117.674-68.721z" fill="#ba5d4f"/><path d="m380.727 62.404c0 27.211-12.013 57.509-63.643 57.509-4.67 0-9.123-.206-13.389-.58 42.409-4.345 52.722-32.392 52.722-57.794 0-20.045 1.032-47.059-41.938-54.019.521-.02 1.052-.02 1.583-.02 66.022 0 64.665 32.038 64.665 54.904z" fill="#a34f41"/><path d="m309.882 247.981c-13.509 0-24.46-10.951-24.46-24.46v-7.942h48.919v7.942c.001 13.509-10.95 24.46-24.459 24.46z" fill="#f8f3f1"/></g></g></g><g fill="#b5dbfd"><path d="m280.681 364.061v-53.419c0-2.56-1.934-4.707-4.481-4.973l-8.923-.931c-5.708-.596-11.379 1.37-15.491 5.374-8.426 8.204-21.485 25.226-26.431 55.001-.673 4.05 3.516 7.161 7.179 5.307 11.933-6.045 33.825-14.763 48.147-6.359z"/><path d="m339.034 364.061v-53.419c0-2.56 1.934-4.707 4.481-4.973l8.923-.931c5.708-.596 11.379 1.37 15.491 5.374 8.426 8.204 21.485 25.226 26.431 55.001.673 4.05-3.516 7.161-7.179 5.307-11.933-6.045-33.826-14.763-48.147-6.359z"/></g></g><g><path d="m232.832 350.091v51.592c0 5.455-2.011 10.699-5.666 14.748l-12.691 14.105v73.964h-73.466v-56.249l-33.271-33.271c-6.19-6.199-9.551-14.473-9.404-23.252.138-8.513 3.82-16.585 9.835-22.609l18.706-18.706v-5.06c0-9.753 7.604-18.045 17.347-18.339 4.959-.147 9.486 1.736 12.811 4.876 3.187-3.581 7.833-5.85 13.004-5.85 5.547 0 10.487 2.608 13.674 6.667 2.893-2.323 6.548-3.719 10.533-3.719 5.804 0 10.928 2.957 13.959 7.438 2.783-1.837 6.171-2.828 9.799-2.581 8.42.552 14.83 7.807 14.83 16.246z" fill="#fda79b"/><path d="m232.832 349.705v51.977c0 5.455-2.011 10.699-5.666 14.748l-12.691 14.105v73.965h-29.525v-69.647c0-2.773 1.029-5.455 2.884-7.521l9.817-10.901c3.646-4.05 5.657-9.293 5.657-14.748v-57.102c0-7.08-4.518-13.334-10.937-15.483.615-.073 1.24-.11 1.873-.11 5.804 0 10.928 2.957 13.959 7.438 2.507-1.653 5.51-2.617 8.733-2.617 8.761 0 15.896 7.126 15.896 15.896z" fill="#fc9085"/><g><path d="m108.744 182.455h-15.56c-4.142 0-7.5 3.358-7.5 7.5s3.358 7.5 7.5 7.5h7.872c-.876 4.329-4.711 7.598-9.295 7.598-5.229 0-9.483-4.254-9.483-9.483v-16.234c0-5.229 4.254-9.483 9.483-9.483 3.528 0 6.745 1.941 8.395 5.065 1.934 3.663 6.471 5.063 10.134 3.13 3.663-1.934 5.064-6.472 3.13-10.134-4.254-8.057-12.554-13.062-21.66-13.062-13.5 0-24.483 10.983-24.483 24.483v16.234c0 13.5 10.983 24.483 24.483 24.483s24.483-10.983 24.483-24.483v-5.614c.001-4.142-3.357-7.5-7.499-7.5z"/><path d="m146.247 154.851c-13.5 0-24.483 10.983-24.483 24.483v16.234c0 13.5 10.983 24.483 24.483 24.483s24.483-10.983 24.483-24.483v-16.234c0-13.5-10.983-24.483-24.483-24.483zm9.483 40.718c0 5.229-4.254 9.483-9.483 9.483s-9.483-4.254-9.483-9.483v-16.234c0-5.229 4.254-9.483 9.483-9.483s9.483 4.254 9.483 9.483z"/><path d="m502.994 502.769-23.887-100.699c-3.514-14.814-10.518-28.846-20.253-40.581-2.645-3.188-7.374-3.628-10.561-.983-3.188 2.645-3.628 7.373-.983 10.561 8.27 9.967 14.218 21.885 17.202 34.464l23.888 100.7c.818 3.449 3.895 5.771 7.291 5.771.573 0 1.156-.066 1.737-.204 4.03-.957 6.522-4.999 5.566-9.029z"/><path d="m419.117 417.515c-4.142 0-7.5 3.358-7.5 7.5v79.485c0 4.142 3.358 7.5 7.5 7.5s7.5-3.358 7.5-7.5v-79.485c0-4.142-3.358-7.5-7.5-7.5z"/><path d="m380.889 24.476c-1.561-2.531-3.447-4.973-5.742-7.271-11.564-11.577-30.892-17.205-59.089-17.205-77.742 0-111.331 45.719-124.434 72.971-2.956 6.148-2.772 13.396.49 19.387.369.678.774 1.325 1.205 1.949-.063 1.318-.201 3.624-.212 5.097l-19.324 5.463-6.006-23.681c-1.301-5.13-5.284-9.167-10.395-10.534-5.103-1.366-10.567.14-14.25 3.927l-17.035 17.506-17.033-17.504c-3.685-3.79-9.145-5.294-14.252-3.929-5.11 1.367-9.093 5.404-10.395 10.534l-6.005 23.68-23.507-6.645c-5.092-1.437-10.579-.002-14.318 3.744-3.734 3.742-5.157 9.223-3.717 14.291l6.637 23.515-23.687 6c-5.124 1.302-9.155 5.285-10.521 10.393-1.365 5.106.141 10.568 3.928 14.251l17.508 17.036-17.506 17.042c-3.789 3.685-5.295 9.144-3.93 14.247 1.365 5.106 5.397 9.087 10.525 10.39l23.683 6.006-6.634 23.498c-1.444 5.092-.017 10.579 3.726 14.32 3.743 3.742 9.23 5.166 14.308 3.724l23.506-6.637 6.007 23.687c1.303 5.124 5.285 9.156 10.394 10.521 1.246.333 2.511.495 3.768.495 3.896 0 7.698-1.56 10.482-4.423l17.035-17.506 17.033 17.504c3.684 3.79 9.146 5.296 14.252 3.93 5.108-1.365 9.091-5.397 10.395-10.525l6.006-23.683 23.498 6.634c5.096 1.447 10.58.018 14.319-3.722 3.74-3.74 5.167-9.227 3.725-14.311l-6.637-23.506 15.131-3.838c1.077 3.288 2.305 6.63 3.706 9.978 10.624 25.383 27.526 42.485 49.679 50.623-.201 2.111-.648 4.195-1.33 6.197l-7.813-.815c-7.945-.835-15.78 1.882-21.505 7.454-5.034 4.899-11.856 12.97-17.77 24.854-3.047-1.829-6.534-2.981-10.273-3.226-2.9-.201-5.753.133-8.462.969-4.358-3.73-9.939-5.845-15.807-5.845-3.245 0-6.456.662-9.428 1.915-4.228-3.138-9.368-4.862-14.779-4.862-4.782 0-9.421 1.384-13.386 3.915-3.847-2.047-8.179-3.071-12.654-2.938-13.577.409-24.622 11.999-24.622 25.835v1.953l-16.514 16.514c-7.589 7.601-11.86 17.469-12.027 27.783-.181 10.822 3.937 21.007 11.6 28.681l31.074 31.074v53.143c0 4.142 3.358 7.5 7.5 7.5s7.5-3.358 7.5-7.5v-56.249c0-1.989-.79-3.897-2.197-5.303l-33.267-33.267c-4.763-4.771-7.325-11.102-7.212-17.832.104-6.408 2.818-12.598 7.64-17.427l5.902-5.902v21.198c0 4.142 3.358 7.5 7.5 7.5s7.5-3.358 7.5-7.5v-39.286c0-.007.001-5.079.001-5.079 0-5.811 4.519-10.675 10.069-10.842 2.772-.073 5.419.923 7.438 2.832 1.474 1.393 3.443 2.125 5.476 2.041 2.026-.088 3.93-.993 5.278-2.508 1.885-2.12 4.583-3.335 7.4-3.335 3.046 0 5.879 1.384 7.774 3.798 1.237 1.576 3.054 2.591 5.044 2.82 1.991.229 3.989-.349 5.552-1.604 1.174-.943 3.139-2.067 5.836-2.067 3.097 0 5.993 1.547 7.746 4.14 2.301 3.405 6.915 4.322 10.344 2.059 1.071-.707 2.834-1.511 5.179-1.356 4.385.287 7.82 4.135 7.82 8.761v51.592c0 3.603-1.326 7.056-3.742 9.732l-12.691 14.105c-1.239 1.377-1.924 3.164-1.924 5.016v17.768c0 4.142 3.358 7.5 7.5 7.5s7.5-3.358 7.5-7.5v-14.89l10.758-11.958c4.9-5.429 7.599-12.452 7.599-19.774v-26.67c13.479-6.135 25.095-8.231 32.848-6.017v135.504c0 4.142 3.358 7.5 7.5 7.5s7.5-3.358 7.5-7.5v-136.879c6.661 3.15 13.94 4.789 21.486 4.789 7.703 0 15.11-1.699 21.865-4.962v137.052c0 4.142 3.358 7.5 7.5 7.5s7.5-3.358 7.5-7.5v-135.523c8.625-2.5 21.865.335 37.261 8.132 1.795.909 3.729 1.357 5.652 1.357 2.601 0 5.182-.82 7.374-2.429 3.826-2.809 5.719-7.466 4.94-12.154-1.379-8.3-3.349-15.687-5.686-22.256 8.826 1.466 17.328 4.297 25.277 8.449 1.109.579 2.296.854 3.466.854 2.704 0 5.316-1.467 6.654-4.029 1.917-3.672.496-8.203-3.176-10.12-9.716-5.074-20.129-8.491-30.948-10.154l-8.618-1.317c-5.067-9.089-10.665-15.799-15.566-20.571-5.72-5.57-13.559-8.287-21.501-7.459l-7.792.813c-.672-2.003-1.112-4.083-1.31-6.189 22.155-8.137 39.058-25.24 49.682-50.626 5.073-12.123 7.876-24.159 9.43-33.825 1.026.101 2.053.169 3.079.169 15.125-.001 29.88-10.819 35.859-27.478 3.512-9.797 3.539-20.239.074-29.402-3.225-8.527-9.098-15.048-16.709-18.663 3.649-35.971 1.929-62.303-5.123-78.284-5.691-12.896-19.262-22.954-37.962-29.319zm7.338 36.577c.006-5.376.01-11.576-.919-17.927 8.908 4.475 14.885 10.075 17.817 16.722 5.821 13.191 7.216 37.072 4.072 69.215-1.886.075-3.777.31-5.655.715-.705-14.922-8.988-28.196-21.867-35.408 4.314-8.997 6.552-21.046 6.552-33.317zm-184.471 83.927c3.886-1.391 8.244-1.224 12.411.424v41.476c0 .292.011 2.347.228 5.684-9.37.828-19.107-6.312-23.117-17.486-2.311-6.444-2.369-13.203-.164-19.033 2.044-5.408 5.825-9.337 10.642-11.065zm12.467-15.201c-1.999-.432-4.011-.671-6.018-.729-1.232-10.243-1.928-18.901-2.077-25.86 5.764.736 11.2 1.811 16.47 3.113-5.022 6.779-7.965 14.925-8.375 23.476zm-18.69 92.711c-1.962.498-3.64 1.767-4.651 3.52-1.012 1.753-1.272 3.84-.723 5.788l8.542 30.257-30.256-8.542c-1.948-.55-4.035-.29-5.788.723-1.753 1.012-3.022 2.689-3.52 4.651l-7.731 30.484-21.934-22.541c-1.412-1.451-3.351-2.27-5.375-2.27s-3.963.818-5.375 2.27l-21.934 22.54-7.731-30.484c-.498-1.962-1.767-3.639-3.52-4.651-1.752-1.013-3.84-1.272-5.788-.723l-30.256 8.542 8.542-30.257c.55-1.948.29-4.035-.723-5.788-1.012-1.753-2.689-3.022-4.651-3.52l-30.476-7.729 22.534-21.937c1.451-1.412 2.269-3.351 2.269-5.375s-.819-3.962-2.27-5.374l-22.541-21.934 30.482-7.721c1.962-.497 3.64-1.766 4.652-3.519 1.013-1.753 1.274-3.84.724-5.789l-8.542-30.268 30.254 8.552c1.947.55 4.036.291 5.789-.722 1.753-1.012 3.023-2.689 3.521-4.652l7.733-30.492 21.932 22.539c1.412 1.451 3.351 2.27 5.375 2.27s3.963-.818 5.375-2.27l21.932-22.539 7.733 30.492c.498 1.962 1.768 3.64 3.521 4.652 1.754 1.012 3.842 1.271 5.79.722l23.265-6.577c.397 5.257.986 11.065 1.766 17.399-7.459 3.643-13.214 10.109-16.396 18.52-3.465 9.163-3.438 19.604.075 29.404 5.978 16.658 20.732 27.476 35.857 27.476 1.026 0 2.053-.068 3.079-.169.471 2.929 1.054 6.07 1.783 9.372zm41.67 120.361c5.516-13.358 12.876-22.56 17.815-27.366 2.523-2.455 5.978-3.652 9.482-3.285l6.677.696v40.718c-10.746-1.742-22.594 1.126-32.845 5.114v-8.637c0-2.521-.406-4.95-1.129-7.24zm107.33-29.957 6.682-.697c3.508-.367 6.96.833 9.481 3.288 6.638 6.463 18.135 20.798 23.371 46.063-9.918-4.579-21.64-8.492-32.729-8.492-2.303 0-4.579.168-6.805.535zm-58.356-2.254c1.925-3.855 2.972-10.547 3.639-14.817 5.748 1.028 11.772 1.557 18.071 1.557 6.293 0 12.312-.528 18.055-1.554.66 4.262 1.688 10.96 3.591 14.816v39.305c-6.257 4.883-13.891 7.463-21.867 7.463-7.824 0-15.284-2.499-21.49-7.226-.014-.011.001-39.544.001-39.544zm42.962-184.077c17.853-2.274 32.697-9.034 42.197-19.638 9.343 4.76 15.26 14.287 15.26 24.925v55.021c0 .247-.171 24.909-10.352 48.986-13.053 30.87-36.052 46.522-68.358 46.522-32.311 0-55.313-15.652-68.367-46.522-10.182-24.077-10.353-48.739-10.353-48.978v-55.03c0-8.021 3.43-15.605 9.42-20.913 3.211 1.036 6.423 2.113 9.678 3.206 13.36 4.487 27.176 9.126 43.494 11.547 4.093.604 7.911-2.221 8.52-6.318.607-4.097-2.221-7.912-6.318-8.52-15.003-2.226-27.592-6.453-40.92-10.928-13.925-4.676-28.324-9.512-45.246-11.645-2.635-.332-3.955-2.082-4.507-3.095-.976-1.792-1.028-3.875-.145-5.713 11.577-24.077 41.381-64.47 110.916-64.47 23.679 0 39.989 4.309 48.476 12.806 8.721 8.731 8.707 21.186 8.693 33.23 0 29.024-14.477 46.949-43.026 50.586-4.109.523-7.016 4.279-6.492 8.388.482 3.787 3.71 6.553 7.43 6.553zm95.349 48.514c-4.011 11.176-13.749 18.313-23.119 17.487.217-3.337.228-5.391.228-5.684v-41.476c4.166-1.648 8.524-1.815 12.409-.424 4.819 1.728 8.599 5.657 10.645 11.065 2.204 5.83 2.146 12.59-.163 19.032z"/><path d="m334.342 208.079h-48.919c-4.142 0-7.5 3.358-7.5 7.5v7.942c0 17.623 14.337 31.959 31.959 31.959s31.96-14.337 31.96-31.959v-7.942c0-4.142-3.358-7.5-7.5-7.5zm-7.5 15.442c0 9.352-7.608 16.959-16.96 16.959s-16.959-7.608-16.959-16.959v-.442h33.919z"/><path d="m369.223 159.309c-4.667-3.39-10.639-5.257-16.817-5.257s-12.151 1.867-16.817 5.257c-3.351 2.435-4.094 7.125-1.66 10.476 2.436 3.352 7.126 4.094 10.476 1.66 2.124-1.543 4.965-2.393 8.001-2.393s5.877.85 8.001 2.393c1.331.967 2.874 1.433 4.402 1.433 2.319 0 4.606-1.072 6.074-3.092 2.434-3.352 1.691-8.042-1.66-10.477z"/><path d="m285.833 169.785c2.435-3.351 1.691-8.041-1.66-10.476-4.667-3.39-10.639-5.257-16.817-5.257s-12.151 1.867-16.817 5.257c-3.351 2.435-4.094 7.125-1.66 10.476 2.436 3.352 7.125 4.094 10.476 1.66 2.124-1.543 4.965-2.393 8.001-2.393s5.877.85 8.001 2.393c1.331.967 2.874 1.433 4.402 1.433 2.319-.001 4.606-1.073 6.074-3.093z"/><path d="m306.954 198.103h5.855c4.142 0 7.5-3.358 7.5-7.5s-3.358-7.5-7.5-7.5h-5.855c-4.142 0-7.5 3.358-7.5 7.5s3.358 7.5 7.5 7.5z"/><path d="m214.475 477.094c-4.142 0-7.5 3.358-7.5 7.5v19.906c0 4.142 3.358 7.5 7.5 7.5s7.5-3.358 7.5-7.5v-19.906c0-4.142-3.358-7.5-7.5-7.5z"/></g></g></g></svg>