<svg height="511pt" viewBox="-3 1 511 511.99896" width="511pt" xmlns="http://www.w3.org/2000/svg"><path d="m75.117188 340.769531c-37.003907 0-67.003907-30-67.003907-67.007812 0-37.003907 30-67.003907 67.003907-67.003907h355.472656c37.007812 0 67.007812 30 67.007812 67.003907 0 37.007812-30 67.007812-67.007812 67.007812" fill="#ef9f87"/><path d="m430.589844 130.910156v194.035156c0 98.40625-79.246094 179.394532-177.648438 179.441407-98.203125.050781-177.820312-79.546875-177.820312-177.738281v-195.738282c0-68.09375 55.203125-123.296875 123.300781-123.296875h108.871094c68.09375 0 123.296875 55.203125 123.296875 123.296875zm0 0" fill="#ffdaca"/><path d="m251.492188 504.375c-97.539063-.71875-176.375-80.019531-176.375-177.722656v-195.738282c0-68.097656 55.195312-123.300781 123.292968-123.300781h22.421875c-40.054687 0-72.53125 55.203125-72.53125 123.300781v195.738282c0 97.386718 46.070313 176.484375 103.191407 177.722656zm0 0" fill="#ef9f87"/><path d="m430.59375 130.914062v46.007813c-71.089844 0-125.910156-12.667969-166.609375-28.441406-67.070313-25.972657-95.785156-60.371094-95.785156-60.371094-2.214844 7.980469-6.78125 16.464844-13.386719 24.492187-16.089844 19.570313-44.226562 36.410157-79.6875 36.410157v-18.097657c0-46.730468 25.992188-87.390624 64.308594-108.300781 17.519531-9.5625 37.617187-15 58.980468-15h108.878907c68.09375 0 123.300781 55.203125 123.300781 123.300781zm0 0" fill="#555a80"/><path d="m263.984375 148.480469c-67.070313-25.972657-95.785156-60.371094-95.785156-60.371094-2.214844 7.980469-6.78125 16.464844-13.386719 24.492187l-15.378906-89.988281c17.519531-9.5625 37.617187-15 58.980468-15h45.460938c-51.15625 20.195313-22.339844 120.933594 20.109375 140.867188zm0 0" fill="#2a2d49"/><path d="m349.367188 419.539062c0-53.304687-43.210938-96.515624-96.511719-96.515624-53.304688 0-96.511719 43.210937-96.511719 96.515624zm0 0" fill="#555a80"/><path d="m185.785156 350.148438c17.367188-16.796876 41.015625-27.121094 67.070313-27.121094 26.066406 0 49.703125 10.324218 67.070312 27.121094-43.683593 13.519531-90.453125 13.519531-134.140625 0zm0 0" fill="#f2f2f2"/><path d="m327.34375 419.53125h-148.988281c17.699219-21.464844 44.496093-35.148438 74.5-35.148438 29.992187 0 56.800781 13.683594 74.488281 35.148438zm0 0" fill="#f96eb3"/><path d="m168.207031 88.109375v.019531c-.011719-.011718-.011719-.019531-.011719-.019531-7.613281 27.402344-43.054687 60.898437-93.074218 60.898437v-18.097656c0-67.699218 54.546875-122.648437 122.09375-123.28125-37.300782 1.066406-47.085938 51.867188-29.007813 80.480469zm0 0" fill="#2a2d49"/><path d="m321.582031 312.667969c6.101563-6.542969 13.898438-11.679688 23.011719-14.628907 9.117188-2.953124 18.441406-3.359374 27.21875-1.628906 13.035156-13.984375 18.304688-34.421875 12.003906-53.898437-9.257812-28.589844-39.9375-44.265625-68.527344-35.007813-28.59375 9.253906-44.265624 39.933594-35.011718 68.523438 6.304687 19.476562 22.550781 32.949218 41.304687 36.640625zm0 0" fill="#fff"/><path d="m184.128906 312.667969c-6.101562-6.542969-13.898437-11.679688-23.011718-14.628907-9.117188-2.953124-18.441407-3.359374-27.21875-1.628906-13.035157-13.984375-18.304688-34.421875-12-53.898437 9.253906-28.589844 39.933593-44.265625 68.523437-35.007813 28.59375 9.253906 44.265625 39.933594 35.011719 68.523438-6.304688 19.476562-22.550782 32.949218-41.304688 36.640625zm0 0" fill="#fff"/><path d="m349.390625 259.4375c0 10.160156-8.238281 18.394531-18.398437 18.394531-10.160157 0-18.394532-8.234375-18.394532-18.394531s8.234375-18.398438 18.394532-18.398438c10.160156 0 18.398437 8.238282 18.398437 18.398438zm0 0" fill="#555a80"/><path d="m193.113281 259.4375c0 10.160156-8.234375 18.394531-18.394531 18.394531s-18.398438-8.234375-18.398438-18.394531 8.238282-18.398438 18.398438-18.398438 18.394531 8.238282 18.394531 18.398438zm0 0" fill="#555a80"/><g fill="#1a1a1a"><path d="m505.210938 273.761719c0-38.574219-29.425782-70.40625-67.007813-74.234375v-68.617188c0-72.183594-58.726563-130.910156-130.910156-130.910156h-108.875c-72.183594 0-130.910157 58.726562-130.910157 130.910156v68.617188c-37.582031 3.824218-67.007812 35.660156-67.007812 74.234375 0 19.933593 7.761719 38.671875 21.855469 52.765625 1.484375 1.484375 3.433593 2.226562 5.382812 2.226562 1.945313 0 3.894531-.742187 5.382813-2.226562 2.972656-2.972656 2.972656-7.792969 0-10.765625-11.21875-11.21875-17.398438-26.132813-17.398438-42 0-30.167969 22.617188-55.140625 51.785156-58.890625v37.851562c-.972656-.546875-1.902343-.988281-2.757812-1.34375-10.589844-4.386718-24.078125-1.359375-32.800781 7.363282-2.972657 2.972656-2.972657 7.792968 0 10.765624 2.972656 2.972657 7.792969 2.972657 10.765625 0 4.414062-4.414062 11.230468-6.125 16.207031-4.0625 5.535156 2.292969 8.582031 9.238282 8.582031 19.5625 0 .015626.003906.03125.003906.046876v41.59375c0 2.011718.042969 4.019531.109376 6.023437-5.375-.675781-10.605469-2.0625-15.617188-4.179687-3.871094-1.636719-8.335938.171874-9.976562 4.046874-1.636719 3.871094.175781 8.335938 4.046874 9.976563 7.246094 3.0625 14.851563 4.917969 22.667969 5.578125 4.742188 41.40625 23.167969 79.738281 53.085938 109.644531 35.003906 34.996094 81.53125 54.261719 131.023437 54.261719h.097656c94.378907-.046875 172.5-71.6875 183.835938-163.898438 38.257812-3.15625 68.429688-35.28125 68.429688-74.339843zm-344.5-252.21875c-.386719.632812-.773438 1.261719-1.136719 1.921875-10.542969 19.132812-10.261719 46.082031.347656 65.554687-4.21875 11.882813-14.050781 24.277344-26.859375 33.683594-10.488281 7.699219-27.386719 16.734375-50.328125 18.417969v-10.210938c0-50.589844 32.644531-93.695312 77.976563-109.367187zm92.226562 475.230469c-.03125 0-.058594 0-.085938 0-45.425781 0-88.136718-17.683594-120.265624-49.800782-32.148438-32.136718-49.851563-74.867187-49.851563-120.324218v-170.285157c41.636719-2.738281 74.824219-27.578125 88.265625-54.527343 15.847656 14.753906 54.121094 44.59375 121.070312 64.195312.714844.207031 1.433594.308594 2.140626.308594 3.292968 0 6.332031-2.15625 7.300781-5.476563 1.183593-4.035156-1.128907-8.261719-5.164063-9.445312-44.492187-13.023438-75.375-30.871094-93.449218-43.550781-17.445313-12.234376-26.636719-22.132813-28.492188-24.21875-9.226562-14.984376-9.894531-37.59375-1.5-52.832032 3.921875-7.113281 11.53125-15.589844 25.511719-15.589844h108.871093c63.792969 0 115.6875 51.894532 115.6875 115.683594v38.34375c-35.554687-.464844-69.386718-4.21875-100.671874-11.171875-4.113282-.914062-8.171876 1.675781-9.082032 5.777344-.914062 4.105469 1.671875 8.171875 5.777344 9.085937 32.359375 7.191407 67.304688 11.066407 103.976562 11.539063v140.464844c0 94.699219-76.277343 171.78125-170.039062 171.824219zm185.09375-164.101563c.105469-2.5625.171875-5.136719.171875-7.726563v-39.9375c0-10.324218 3.046875-17.269531 8.582031-19.5625 4.976563-2.0625 11.792969-.351562 16.207032 4.0625 2.972656 2.972657 7.792968 2.972657 10.765624 0 2.972657-2.972656 2.972657-7.792968 0-10.765624-8.722656-8.722657-22.210937-11.746094-32.796874-7.363282-.855469.355469-1.785157.796875-2.757813 1.34375v-37.847656c29.164063 3.75 51.78125 28.71875 51.78125 58.886719 0 30.230469-22.703125 55.238281-51.953125 58.910156zm0 0"/><path d="m252.855469 315.414062c-57.414063 0-104.125 46.710938-104.125 104.125 0 4.203126 3.410156 7.613282 7.613281 7.613282h193.023438c4.207031 0 7.613281-3.410156 7.613281-7.613282 0-57.414062-46.710938-104.125-104.125-104.125zm50.894531 31.273438c-33.542969 8.03125-68.242188 8.03125-101.785156-.003906 14.425781-10.105469 31.976562-16.046875 50.890625-16.046875 18.914062 0 36.464843 5.941406 50.894531 16.050781zm-107 65.238281c15.71875-12.8125 35.421875-19.929687 56.105469-19.929687 20.691406 0 40.390625 7.117187 56.101562 19.929687zm134.101562 0c-19.78125-22.382812-48-35.152343-77.996093-35.152343-29.988281 0-58.210938 12.769531-78 35.152343h-10.578125c1.746094-20.480469 10.476562-38.984375 23.777344-53.15625 21.246093 6.117188 43.027343 9.175781 64.800781 9.175781 21.777343 0 43.550781-3.058593 64.800781-9.175781 13.300781 14.171875 22.03125 32.675781 23.777344 53.15625zm0 0"/><path d="m312.941406 200.261719c-15.761718 5.101562-28.59375 16.035156-36.128906 30.789062-7.539062 14.753907-8.878906 31.5625-3.777344 47.324219 6.929688 21.410156 24.96875 37.414062 47.078125 41.765625.488281.09375.980469.144531 1.46875.144531 2.089844 0 4.113281-.863281 5.570313-2.421875 5.390625-5.785156 12.234375-10.136719 19.785156-12.582031 7.554688-2.441406 15.648438-2.925781 23.40625-1.402344 2.582031.511719 5.246094-.351562 7.039062-2.277344 15.363282-16.484374 20.605469-40.023437 13.675782-61.429687-10.535156-32.542969-45.578125-50.445313-78.117188-39.910156zm55.867188 87.96875c-8.894532-1.078125-17.992188-.207031-26.558594 2.566406s-16.445312 7.398437-23.023438 13.484375c-14.925781-4.265625-26.882812-15.695312-31.707031-30.59375-3.851562-11.894531-2.839843-24.574219 2.847657-35.707031 5.691406-11.132813 15.371093-19.382813 27.265624-23.234375 4.769532-1.542969 9.613282-2.277344 14.378907-2.277344 19.75 0 38.15625 12.613281 44.558593 32.390625 4.824219 14.898437 1.832032 31.167969-7.761718 43.371094zm0 0"/><path d="m330.992188 233.429688c-14.339844 0-26.007813 11.664062-26.007813 26.007812 0 14.339844 11.667969 26.007812 26.007813 26.007812 14.34375 0 26.011718-11.667968 26.011718-26.007812 0-14.34375-11.667968-26.007812-26.011718-26.007812zm0 36.792968c-5.945313 0-10.78125-4.839844-10.78125-10.785156s4.835937-10.785156 10.78125-10.785156c5.949218 0 10.785156 4.839844 10.785156 10.785156s-4.835938 10.785156-10.785156 10.785156zm0 0"/><path d="m178.558594 317.859375c1.457031 1.558594 3.480468 2.421875 5.570312 2.421875.488282 0 .980469-.046875 1.46875-.144531 22.109375-4.351563 40.148438-20.355469 47.078125-41.765625 5.101563-15.761719 3.761719-32.566406-3.773437-47.320313-7.539063-14.753906-20.371094-25.691406-36.132813-30.792969-15.761719-5.101562-32.570312-3.761718-47.324219 3.777344-14.753906 7.539063-25.6875 20.371094-30.792968 36.132813-6.929688 21.410156-1.691406 44.949219 13.675781 61.429687 1.792969 1.925782 4.457031 2.789063 7.039063 2.28125 7.757812-1.527344 15.851562-1.042968 23.402343 1.402344 7.554688 2.445312 14.398438 6.796875 19.789063 12.578125zm-41.652344-29.628906c-9.597656-12.203125-12.589844-28.472657-7.765625-43.371094 3.847656-11.894531 12.101563-21.574219 23.234375-27.265625 11.132812-5.6875 23.8125-6.699219 35.707031-2.847656 11.890625 3.851562 21.574219 12.101562 27.261719 23.234375 5.6875 11.132812 6.699219 23.8125 2.851562 35.707031-4.824218 14.898438-16.785156 26.328125-31.710937 30.589844-6.574219-6.082032-14.453125-10.707032-23.023437-13.480469-6.191407-2.003906-12.65625-3.015625-19.121094-3.015625-2.484375 0-4.96875.148438-7.433594.449219zm0 0"/><path d="m200.726562 259.4375c0-14.34375-11.667968-26.007812-26.007812-26.007812-14.34375 0-26.011719 11.664062-26.011719 26.007812 0 14.339844 11.667969 26.007812 26.011719 26.007812 14.339844 0 26.007812-11.667968 26.007812-26.007812zm-36.792968 0c0-5.945312 4.839844-10.785156 10.785156-10.785156s10.78125 4.839844 10.78125 10.785156-4.835938 10.785156-10.78125 10.785156-10.785156-4.839844-10.785156-10.785156zm0 0"/></g></svg>