<svg id="Layer_1" enable-background="new 0 0 512 512" height="512" viewBox="0 0 512 512" width="512" xmlns="http://www.w3.org/2000/svg"><g><ellipse cx="131.44" cy="419.601" fill="#de7459" rx="36.959" ry="56.102" transform="matrix(.323 -.947 .947 .323 -308.13 408.662)"/><ellipse cx="380.56" cy="419.601" fill="#de7459" rx="56.102" ry="36.959" transform="matrix(.947 -.323 .323 .947 -115.009 145.188)"/><path d="m435.207 308.099c-13.182-19.343-29.086-36.896-40.202-57.514-17.97-33.329-22.18-72.08-28.598-109.426-6.405-37.334-16.34-76.175-42.525-103.489-18.132-18.927-46.528-37.67-67.888-37.67s-49.744 18.743-67.876 37.669c-26.185 27.315-36.12 66.155-42.525 103.489-6.418 37.347-10.628 76.098-28.598 109.426-11.116 20.618-27.019 38.171-40.202 57.514-13.182 19.356-38.148 56.407-36.736 79.806 2.169 35.879 22.232 64.713 40.548 64.713 15.801 0 8.947-40.682 41.793-40.682 13.824 0 30.986 5.847 37.57 47.057 5.29 32.995 55.554 53.008 96.026 53.008 40.484 0 90.749-20.013 96.037-53.007 6.585-41.21 23.746-47.057 37.57-47.057 32.847 0 25.992 40.682 41.793 40.682 18.317 0 38.379-28.834 40.548-64.713 1.413-23.399-23.553-60.45-36.735-79.806z" fill="#fdba91"/><g fill="#fc997d"><path d="m91.542 411.936c-21.706 0-26.075 17.764-31.102 29.816 6.289 6.867 13.348 10.867 20.166 10.867 12.787 0 10.74-26.64 26.902-36.804-5.311-3.075-10.865-3.879-15.966-3.879z"/><path d="m435.207 308.099c-13.182-19.343-29.086-36.896-40.202-57.514-17.97-33.329-22.18-72.08-28.598-109.426-6.405-37.334-16.34-76.175-42.525-103.49-18.132-18.926-46.528-37.669-67.888-37.669-4.848 0-10.059.974-15.428 2.687 18.293 5.838 38.442 20.351 52.459 34.982 26.185 27.315 36.12 66.155 42.525 103.49 6.418 37.347 10.628 76.098 28.598 109.426 11.116 20.618 27.019 38.171 40.202 57.514 13.182 19.356 38.148 56.407 36.736 79.806-1.362 22.524-9.776 42.266-20.383 53.846 2.58 6.185 5.333 10.867 10.692 10.867 18.317 0 38.379-28.834 40.548-64.713 1.412-23.399-23.554-60.45-36.736-79.806z"/><path d="m331.749 460.742c-16.543 37.204-52.815 48.201-88.206 50.655 4.212.398 8.381.603 12.45.603 40.484 0 90.749-20.013 96.037-53.007 6.021-37.685 20.886-45.793 33.956-46.906-13.823.001-37.284 10.53-54.237 48.655z"/></g></g></svg>